Parix-Hybrid 111R.ufo
<glyph name="A" format="1">
  <advance width="789"/>
  <unicode hex="0041"/>
  <outline>
    <contour>
      <point x="252" y="750" type="curve"/>
      <point x="227" y="719" type="line"/>
      <point x="258" y="686"/>
      <point x="267" y="681"/>
      <point x="252" y="633" type="curve"/>
      <point x="84" y="102" type="line" smooth="yes"/>
      <point x="68" y="52"/>
      <point x="52" y="44"/>
      <point x="5" y="32" type="curve"/>
      <point x="5" y="-3" type="line"/>
      <point x="40" y="1"/>
      <point x="151" y="0"/>
      <point x="176" y="-3" type="curve"/>
      <point x="176" y="32" type="line"/>
      <point x="135" y="44"/>
      <point x="129" y="43"/>
      <point x="144" y="99" type="curve"/>
      <point x="196" y="293"/>
      <point x="255" y="509"/>
      <point x="319" y="686" type="curve"/>
      <point x="296" y="684" type="line"/>
      <point x="405" y="490"/>
      <point x="497" y="291"/>
      <point x="574" y="97" type="curve"/>
      <point x="593" y="49"/>
      <point x="603" y="42"/>
      <point x="539" y="32" type="curve"/>
      <point x="539" y="-3" type="line"/>
      <point x="585" y="-1"/>
      <point x="736" y="0"/>
      <point x="784" y="-3" type="curve"/>
      <point x="784" y="32" type="line"/>
      <point x="733" y="39"/>
      <point x="730" y="45"/>
      <point x="698" y="107" type="curve"/>
      <point x="594" y="305"/>
      <point x="498" y="502"/>
      <point x="403" y="700" type="curve"/>
      <point x="344" y="711"/>
      <point x="299" y="725"/>
    </contour>
    <contour>
      <point x="191" y="372" type="curve"/>
      <point x="171" y="320" type="line"/>
      <point x="283" y="327"/>
      <point x="426" y="331"/>
      <point x="538" y="330" type="curve"/>
      <point x="527" y="384" type="line"/>
      <point x="415" y="378"/>
      <point x="291" y="374"/>
    </contour>
  </outline>
</glyph>
<glyph name="B" format="1">
  <advance width="689"/>
  <unicode hex="0042"/>
  <outline>
    <contour>
      <point x="396" y="420" type="curve"/>
      <point x="430" y="408" type="line"/>
      <point x="490" y="424"/>
      <point x="553" y="494"/>
      <point x="553" y="571" type="curve"/>
      <point x="553" y="651"/>
      <point x="507" y="711"/>
      <point x="387" y="711" type="curve"/>
      <point x="319" y="711"/>
      <point x="241" y="703"/>
      <point x="163" y="703" type="curve"/>
      <point x="143" y="703"/>
      <point x="93" y="701"/>
      <point x="63" y="703" type="curve"/>
      <point x="58" y="663" type="line"/>
      <point x="98" y="653"/>
      <point x="106" y="634"/>
      <point x="109" y="586" type="curve"/>
      <point x="119" y="423"/>
      <point x="119" y="192"/>
      <point x="116" y="139" type="curve"/>
      <point x="113" y="83"/>
      <point x="110" y="48"/>
      <point x="100" y="17" type="curve"/>
      <point x="119" y="-11" type="line"/>
      <point x="149" y="-5"/>
      <point x="187" y="4"/>
      <point x="224" y="4" type="curve"/>
      <point x="259" y="4"/>
      <point x="314" y="-10"/>
      <point x="390" y="-10" type="curve"/>
      <point x="519" y="-10"/>
      <point x="649" y="67"/>
      <point x="649" y="219" type="curve"/>
      <point x="649" y="340"/>
      <point x="543" y="406"/>
    </contour>
    <contour>
      <point x="448" y="541" type="curve"/>
      <point x="448" y="461"/>
      <point x="387" y="405"/>
      <point x="297" y="405" type="curve"/>
      <point x="261" y="405"/>
      <point x="236" y="408"/>
      <point x="213" y="415" type="curve"/>
      <point x="212" y="477"/>
      <point x="213" y="544"/>
      <point x="216" y="596" type="curve"/>
      <point x="218" y="648"/>
      <point x="222" y="670"/>
      <point x="318" y="670" type="curve"/>
      <point x="415" y="670"/>
      <point x="448" y="624"/>
    </contour>
    <contour>
      <point x="343" y="34" type="curve"/>
      <point x="285" y="34"/>
      <point x="251" y="45"/>
      <point x="221" y="60" type="curve"/>
      <point x="216" y="159"/>
      <point x="211" y="260"/>
      <point x="213" y="359" type="curve"/>
      <point x="236" y="367"/>
      <point x="276" y="376"/>
      <point x="324" y="376" type="curve"/>
      <point x="443" y="376"/>
      <point x="546" y="329"/>
      <point x="546" y="209" type="curve"/>
      <point x="546" y="99"/>
      <point x="465" y="34"/>
    </contour>
  </outline>
</glyph>
<glyph name="G" format="1">
  <advance width="814"/>
  <unicode hex="0047"/>
  <outline>
    <contour>
      <point x="664" y="498" type="curve"/>
      <point x="704" y="499" type="line"/>
      <point x="712" y="561"/>
      <point x="717" y="613"/>
      <point x="731" y="675" type="curve"/>
      <point x="651" y="698"/>
      <point x="576" y="710"/>
      <point x="470" y="710" type="curve"/>
      <point x="267" y="710"/>
      <point x="65" y="570"/>
      <point x="65" y="340" type="curve"/>
      <point x="65" y="130"/>
      <point x="244" y="-10"/>
      <point x="444" y="-10" type="curve"/>
      <point x="554" y="-10"/>
      <point x="665" y="19"/>
      <point x="768" y="60" type="curve"/>
      <point x="768" y="89" type="line"/>
      <point x="747" y="96"/>
      <point x="715" y="96"/>
      <point x="715" y="141" type="curve"/>
      <point x="715" y="247" type="line" smooth="yes"/>
      <point x="715" y="297"/>
      <point x="745" y="310"/>
      <point x="784" y="320" type="curve"/>
      <point x="784" y="356" type="line"/>
      <point x="693" y="347"/>
      <point x="618" y="347"/>
      <point x="525" y="356" type="curve"/>
      <point x="525" y="322" type="line"/>
      <point x="589" y="312"/>
      <point x="615" y="290"/>
      <point x="615" y="250" type="curve"/>
      <point x="615" y="101" type="line"/>
      <point x="584" y="69"/>
      <point x="512" y="35"/>
      <point x="444" y="35" type="curve"/>
      <point x="284" y="35"/>
      <point x="185" y="190"/>
      <point x="185" y="350" type="curve"/>
      <point x="185" y="540"/>
      <point x="302" y="665"/>
      <point x="450" y="665" type="curve"/>
      <point x="553" y="665"/>
      <point x="622" y="598"/>
    </contour>
  </outline>
</glyph>
<glyph name="I" format="1">
  <advance width="463"/>
  <unicode hex="0049"/>
  <outline>
    <contour>
      <point x="127" y="-115" type="curve"/>
      <point x="115" y="-83" type="line"/>
      <point x="159" y="-60"/>
      <point x="288" y="46"/>
      <point x="288" y="169" type="curve"/>
      <point x="288" y="240"/>
      <point x="272" y="296"/>
      <point x="272" y="369" type="curve"/>
      <point x="272" y="462"/>
      <point x="285" y="533"/>
      <point x="304" y="619" type="curve"/>
      <point x="217" y="622"/>
      <point x="81" y="627"/>
      <point x="31" y="586" type="curve"/>
      <point x="5" y="600" type="line"/>
      <point x="84" y="713" type="line"/>
      <point x="234" y="713"/>
      <point x="289" y="690"/>
      <point x="399" y="722" type="curve"/>
      <point x="400" y="722" type="line"/>
      <point x="418" y="708" type="line"/>
      <point x="371" y="599"/>
      <point x="374" y="535"/>
      <point x="374" y="445" type="curve"/>
      <point x="374" y="308"/>
      <point x="391" y="234"/>
      <point x="391" y="150" type="curve"/>
      <point x="391" y="48"/>
      <point x="184" y="-100"/>
    </contour>
    <contour>
      <point x="183" y="344" type="curve"/>
      <point x="183" y="349" type="line"/>
      <point x="279" y="419" type="line"/>
      <point x="279" y="291" type="line"/>
      <point x="257" y="320"/>
      <point x="223" y="336"/>
    </contour>
  </outline>
</glyph>
<glyph name="K" format="1">
  <advance width="609"/>
  <unicode hex="004B"/>
  <outline>
    <contour>
      <point x="42" y="703" type="curve"/>
      <point x="42" y="663" type="line"/>
      <point x="73" y="642"/>
      <point x="77" y="615"/>
      <point x="77" y="570" type="curve"/>
      <point x="77" y="100" type="line" smooth="yes"/>
      <point x="77" y="60"/>
      <point x="70" y="46"/>
      <point x="30" y="32" type="curve"/>
      <point x="30" y="-3" type="line"/>
      <point x="63" y="-1"/>
      <point x="165" y="-2"/>
      <point x="227" y="-2" type="curve"/>
      <point x="227" y="32" type="line"/>
      <point x="190" y="46"/>
      <point x="177" y="60"/>
      <point x="177" y="100" type="curve"/>
      <point x="177" y="560" type="line" smooth="yes"/>
      <point x="177" y="642"/>
      <point x="182" y="653"/>
      <point x="247" y="663" type="curve"/>
      <point x="247" y="703" type="line"/>
      <point x="190" y="701"/>
      <point x="102" y="700"/>
    </contour>
    <contour>
      <point x="550" y="105" type="curve"/>
      <point x="344" y="388" type="line"/>
      <point x="238" y="361" type="line"/>
      <point x="418" y="98" type="line" smooth="yes"/>
      <point x="450" y="51"/>
      <point x="428" y="40"/>
      <point x="384" y="35" type="curve"/>
      <point x="384" y="-3" type="line"/>
      <point x="474" y="1"/>
      <point x="580" y="3"/>
      <point x="626" y="-3" type="curve"/>
      <point x="626" y="35" type="line"/>
      <point x="601" y="47"/>
      <point x="592" y="47"/>
    </contour>
    <contour>
      <point x="276" y="353" type="line"/>
      <point x="301" y="333" type="line"/>
      <point x="515" y="592" type="line" smooth="yes"/>
      <point x="559" y="645"/>
      <point x="609" y="650"/>
      <point x="634" y="662" type="curve"/>
      <point x="634" y="700" type="line"/>
      <point x="588" y="694"/>
      <point x="489" y="696"/>
      <point x="399" y="700" type="curve"/>
      <point x="399" y="662" type="line"/>
      <point x="443" y="657"/>
      <point x="464" y="647"/>
      <point x="433" y="599" type="curve"/>
    </contour>
    <contour>
      <point x="314" y="375" type="line"/>
      <point x="142" y="375" type="line"/>
      <point x="142" y="335" type="line"/>
      <point x="314" y="335" type="line"/>
    </contour>
  </outline>
</glyph>
<glyph name="L" format="1">
  <advance width="728"/>
  <unicode hex="004C"/>
  <outline>
    <contour>
      <point x="30" y="703" type="curve"/>
      <point x="30" y="663" type="line"/>
      <point x="61" y="642"/>
      <point x="65" y="615"/>
      <point x="65" y="570" type="curve"/>
      <point x="65" y="120" type="line" smooth="yes"/>
      <point x="65" y="80"/>
      <point x="58" y="60"/>
      <point x="40" y="37" type="curve"/>
      <point x="40" y="-3" type="line"/>
      <point x="61" y="-1"/>
      <point x="103" y="0"/>
      <point x="145" y="0" type="curve"/>
      <point x="638" y="0" type="line"/>
      <point x="680" y="43"/>
      <point x="708" y="106"/>
      <point x="708" y="200" type="curve"/>
      <point x="678" y="200" type="line"/>
      <point x="663" y="91"/>
      <point x="629" y="57"/>
      <point x="566" y="57" type="curve"/>
      <point x="165" y="56" type="line"/>
      <point x="165" y="560" type="line" smooth="yes"/>
      <point x="165" y="642"/>
      <point x="170" y="653"/>
      <point x="235" y="663" type="curve"/>
      <point x="235" y="703" type="line"/>
      <point x="178" y="701"/>
      <point x="90" y="700"/>
    </contour>
  </outline>
</glyph>
<glyph name="N" format="1">
  <advance width="827"/>
  <unicode hex="004E"/>
  <outline>
    <contour>
      <point x="410" y="653" type="curve"/>
      <point x="572" y="653"/>
      <point x="639" y="549"/>
      <point x="639" y="428" type="curve"/>
      <point x="639" y="287"/>
      <point x="515" y="96"/>
      <point x="413" y="3" type="curve"/>
      <point x="432" y="-9" type="line"/>
      <point x="422" y="214"/>
      <point x="422" y="438"/>
      <point x="432" y="661" type="curve"/>
      <point x="404" y="661" type="line"/>
      <point x="394" y="436"/>
      <point x="394" y="212"/>
      <point x="404" y="-13" type="curve"/>
      <point x="468" y="-5"/>
      <point x="567" y="6"/>
      <point x="647" y="1" type="curve"/>
      <point x="656" y="-9"/>
      <point x="660" y="-23"/>
      <point x="664" y="-33" type="curve"/>
      <point x="689" y="-32" type="line"/>
      <point x="691" y="0"/>
      <point x="703" y="49"/>
      <point x="709" y="81" type="curve"/>
      <point x="705" y="86" type="line"/>
      <point x="658" y="88"/>
      <point x="608" y="87"/>
      <point x="498" y="73" type="curve"/>
      <point x="514" y="70" type="line"/>
      <point x="570" y="132"/>
      <point x="749" y="338"/>
      <point x="749" y="463" type="curve"/>
      <point x="749" y="603"/>
      <point x="649" y="709"/>
      <point x="453" y="709" type="curve"/>
      <point x="306" y="709"/>
      <point x="111" y="578"/>
      <point x="111" y="461" type="curve"/>
      <point x="111" y="268"/>
      <point x="265" y="118"/>
      <point x="265" y="34" type="curve"/>
      <point x="265" y="-20"/>
      <point x="201" y="-15"/>
      <point x="145" y="6" type="curve"/>
      <point x="134" y="-25" type="line"/>
      <point x="158" y="-42"/>
      <point x="191" y="-52"/>
      <point x="218" y="-52" type="curve"/>
      <point x="295" y="-52"/>
      <point x="321" y="-6"/>
      <point x="321" y="67" type="curve"/>
      <point x="321" y="164"/>
      <point x="204" y="307"/>
      <point x="204" y="447" type="curve"/>
      <point x="204" y="567"/>
      <point x="312" y="653"/>
    </contour>
    <contour>
      <point x="417" y="420" type="line"/>
      <point x="337" y="344" type="line"/>
      <point x="422" y="268" type="line"/>
      <point x="499" y="346" type="line"/>
    </contour>
    <contour>
      <point x="154" y="344" type="line"/>
      <point x="114" y="274" type="line"/>
      <point x="114" y="274" type="line"/>
      <point x="141" y="256"/>
      <point x="153" y="248"/>
      <point x="192" y="211" type="curve"/>
    </contour>
    <contour>
      <point x="147" y="479" type="line"/>
      <point x="83" y="378" type="line"/>
      <point x="83" y="375" type="line"/>
      <point x="106" y="363"/>
      <point x="129" y="344"/>
      <point x="149" y="296" type="curve"/>
    </contour>
    <contour>
      <point x="67" y="486" type="curve"/>
      <point x="67" y="484" type="line"/>
      <point x="88" y="465"/>
      <point x="108" y="442"/>
      <point x="119" y="405" type="curve"/>
      <point x="239" y="633" type="line"/>
      <point x="174" y="597"/>
      <point x="107" y="535"/>
    </contour>
    <contour>
      <point x="211" y="250" type="line"/>
      <point x="154" y="188" type="line"/>
      <point x="155" y="186" type="line"/>
      <point x="187" y="180"/>
      <point x="212" y="164"/>
      <point x="224" y="143" type="curve"/>
    </contour>
  </outline>
</glyph>
<glyph name="P" format="1">
  <advance width="719"/>
  <unicode hex="0050"/>
  <outline>
    <contour>
      <point x="60" y="-4" type="curve"/>
      <point x="60" y="30" type="line"/>
      <point x="90" y="47"/>
      <point x="95" y="53"/>
      <point x="95" y="106" type="curve"/>
      <point x="95" y="594" type="line" smooth="yes"/>
      <point x="95" y="647"/>
      <point x="78" y="653"/>
      <point x="20" y="660" type="curve"/>
      <point x="20" y="700" type="line"/>
      <point x="359" y="700" type="line" smooth="yes"/>
      <point x="558" y="700"/>
      <point x="674" y="633"/>
      <point x="674" y="470" type="curve"/>
      <point x="674" y="309"/>
      <point x="534" y="235"/>
      <point x="414" y="235" type="curve"/>
      <point x="390" y="235"/>
      <point x="364" y="236"/>
      <point x="323" y="247" type="curve"/>
      <point x="318" y="270" type="line"/>
      <point x="465" y="245"/>
      <point x="570" y="291"/>
      <point x="570" y="437" type="curve"/>
      <point x="570" y="544"/>
      <point x="493" y="660"/>
      <point x="327" y="660" type="curve"/>
      <point x="212" y="660"/>
      <point x="197" y="612"/>
      <point x="197" y="533" type="curve"/>
      <point x="195" y="106" type="line" smooth="yes"/>
      <point x="195" y="53"/>
      <point x="213" y="50"/>
      <point x="290" y="30" type="curve"/>
      <point x="290" y="-4" type="line"/>
      <point x="193" y="0"/>
      <point x="97" y="0"/>
    </contour>
  </outline>
</glyph>
<glyph name="T" format="1">
  <advance width="680"/>
  <unicode hex="0054"/>
  <outline>
    <contour>
      <point x="669" y="726" type="line"/>
      <point x="634" y="727" type="line"/>
      <point x="609" y="683"/>
      <point x="608" y="680"/>
      <point x="539" y="680" type="curve"/>
      <point x="173" y="680" type="line" smooth="yes"/>
      <point x="118" y="680"/>
      <point x="98" y="691"/>
      <point x="99" y="731" type="curve"/>
      <point x="60" y="737" type="line"/>
      <point x="10" y="555" type="line"/>
      <point x="51" y="546" type="line"/>
      <point x="69" y="608"/>
      <point x="114" y="605"/>
      <point x="185" y="605" type="curve"/>
      <point x="508" y="605" type="line" smooth="yes"/>
      <point x="596" y="605"/>
      <point x="622" y="609"/>
      <point x="632" y="548" type="curve"/>
      <point x="670" y="547" type="line"/>
    </contour>
    <contour>
      <point x="218" y="32" type="curve"/>
      <point x="218" y="-3" type="line"/>
      <point x="289" y="1"/>
      <point x="418" y="0"/>
      <point x="498" y="-3" type="curve"/>
      <point x="498" y="32" type="line"/>
      <point x="396" y="42"/>
      <point x="402" y="75"/>
      <point x="401" y="175" type="curve"/>
      <point x="394" y="659" type="line"/>
      <point x="300" y="659" type="line"/>
      <point x="298" y="175" type="line" smooth="yes"/>
      <point x="298" y="75"/>
      <point x="292" y="42"/>
    </contour>
  </outline>
</glyph>
<glyph name="V" format="1">
  <advance width="707"/>
  <unicode hex="0056"/>
  <outline>
    <contour>
      <point x="10" y="703" type="curve"/>
      <point x="10" y="663" type="line"/>
      <point x="71" y="652"/>
      <point x="217" y="217"/>
      <point x="322" y="-10" type="curve"/>
      <point x="372" y="-10" type="line"/>
      <point x="617" y="543" type="line" smooth="yes"/>
      <point x="642" y="599"/>
      <point x="663" y="639"/>
      <point x="697" y="663" type="curve"/>
      <point x="697" y="703" type="line"/>
      <point x="625" y="700"/>
      <point x="577" y="700"/>
      <point x="480" y="703" type="curve"/>
      <point x="480" y="663" type="line"/>
      <point x="566" y="627"/>
      <point x="587" y="617"/>
      <point x="549" y="528" type="curve"/>
      <point x="355" y="77" type="line"/>
      <point x="379" y="119" type="line"/>
      <point x="211" y="540" type="line" smooth="yes"/>
      <point x="183" y="610"/>
      <point x="164" y="635"/>
      <point x="271" y="663" type="curve"/>
      <point x="271" y="703" type="line"/>
      <point x="199" y="701"/>
      <point x="91" y="699"/>
    </contour>
  </outline>
</glyph>
<glyph name="b" format="1">
  <advance width="504"/>
  <unicode hex="0062"/>
  <outline>
    <contour>
      <point x="15" y="684" type="curve"/>
      <point x="15" y="654" type="line"/>
      <point x="42" y="651"/>
      <point x="50" y="621"/>
      <point x="51" y="591" type="curve"/>
      <point x="59" y="425"/>
      <point x="49" y="247"/>
      <point x="49" y="81" type="curve"/>
      <point x="49" y="61"/>
      <point x="111" y="-10"/>
      <point x="240" y="-10" type="curve"/>
      <point x="268" y="-10"/>
      <point x="474" y="70"/>
      <point x="474" y="220" type="curve"/>
      <point x="474" y="331"/>
      <point x="409" y="410"/>
      <point x="290" y="410" type="curve"/>
      <point x="271" y="410"/>
      <point x="185" y="391"/>
      <point x="144" y="381" type="curve"/>
      <point x="146" y="545" type="line" smooth="yes"/>
      <point x="147" y="589"/>
      <point x="152" y="661"/>
      <point x="156" y="700" type="curve"/>
      <point x="147" y="705" type="line"/>
      <point x="99" y="696"/>
      <point x="55" y="692"/>
    </contour>
    <contour>
      <point x="376" y="222" type="curve"/>
      <point x="376" y="122"/>
      <point x="309" y="53"/>
      <point x="279" y="53" type="curve"/>
      <point x="175" y="53"/>
      <point x="145" y="96"/>
      <point x="145" y="215" type="curve"/>
      <point x="145" y="314"/>
      <point x="197" y="364"/>
      <point x="259" y="364" type="curve"/>
      <point x="320" y="364"/>
      <point x="376" y="308"/>
    </contour>
  </outline>
</glyph>
<glyph name="e" format="1">
  <advance width="396"/>
  <unicode hex="0065"/>
  <outline>
    <contour>
      <point x="376" y="40" type="curve"/>
      <point x="363" y="65" type="line"/>
      <point x="334" y="55"/>
      <point x="305" y="45"/>
      <point x="267" y="45" type="curve"/>
      <point x="177" y="45"/>
      <point x="111" y="122"/>
      <point x="111" y="222" type="curve"/>
      <point x="111" y="284"/>
      <point x="129" y="346"/>
      <point x="178" y="346" type="curve"/>
      <point x="206" y="346"/>
      <point x="237" y="324"/>
      <point x="248" y="259" type="curve"/>
      <point x="313" y="316" type="line"/>
      <point x="95" y="200" type="line"/>
      <point x="105" y="163" type="line"/>
      <point x="189" y="214"/>
      <point x="292" y="256"/>
      <point x="386" y="307" type="curve"/>
      <point x="375" y="338" type="line"/>
      <point x="360" y="338"/>
      <point x="339" y="342"/>
      <point x="326" y="350" type="curve"/>
      <point x="313" y="358"/>
      <point x="268" y="408"/>
      <point x="205" y="408" type="curve"/>
      <point x="157" y="408"/>
      <point x="68" y="372"/>
      <point x="47" y="334" type="curve"/>
      <point x="37" y="316"/>
      <point x="15" y="289"/>
      <point x="15" y="201" type="curve"/>
      <point x="15" y="91"/>
      <point x="78" y="-10"/>
      <point x="217" y="-10" type="curve"/>
      <point x="289" y="-10"/>
      <point x="331" y="15"/>
    </contour>
    <contour>
      <point x="188" y="0" type="move" name="bottom"/>
    </contour>
    <contour>
      <point x="350" y="10" type="move" name="ogonek"/>
    </contour>
    <contour>
      <point x="188" y="400" type="move" name="top"/>
    </contour>
  </outline>
</glyph>
<glyph name="f" format="1">
  <advance width="314"/>
  <unicode hex="0066"/>
  <outline>
    <contour>
      <point x="30" y="26" type="curve"/>
      <point x="30" y="-4" type="line"/>
      <point x="109" y="2"/>
      <point x="159" y="0"/>
      <point x="247" y="-5" type="curve"/>
      <point x="247" y="25" type="line"/>
      <point x="175" y="38"/>
      <point x="158" y="37"/>
      <point x="157" y="103" type="curve"/>
      <point x="155" y="332" type="line"/>
      <point x="192" y="337"/>
      <point x="234" y="344"/>
      <point x="274" y="347" type="curve"/>
      <point x="274" y="391" type="line"/>
      <point x="155" y="390" type="line"/>
      <point x="151" y="436"/>
      <point x="149" y="481"/>
      <point x="152" y="557" type="curve"/>
      <point x="155" y="615"/>
      <point x="175" y="653"/>
      <point x="220" y="653" type="curve"/>
      <point x="258" y="653"/>
      <point x="281" y="632"/>
      <point x="304" y="595" type="curve"/>
      <point x="354" y="600" type="line"/>
      <point x="354" y="700" type="line"/>
      <point x="317" y="702"/>
      <point x="281" y="710"/>
      <point x="230" y="710" type="curve"/>
      <point x="110" y="710"/>
      <point x="65" y="600"/>
      <point x="65" y="497" type="curve"/>
      <point x="65" y="455"/>
      <point x="67" y="424"/>
      <point x="68" y="392" type="curve"/>
      <point x="66" y="390" type="line"/>
      <point x="38" y="390" type="line"/>
      <point x="38" y="337" type="line"/>
      <point x="48" y="336"/>
      <point x="58" y="334"/>
      <point x="67" y="330" type="curve"/>
      <point x="69" y="251"/>
      <point x="69" y="157"/>
      <point x="65" y="78" type="curve"/>
      <point x="64" y="56"/>
      <point x="60" y="34"/>
    </contour>
  </outline>
</glyph>
<glyph name="h" format="1">
  <advance width="527"/>
  <unicode hex="0068"/>
  <outline>
    <contour>
      <point x="142" y="347" type="curve"/>
      <point x="144" y="258" type="line"/>
      <point x="154" y="325"/>
      <point x="211" y="352"/>
      <point x="255" y="352" type="curve"/>
      <point x="345" y="352"/>
      <point x="401" y="267"/>
      <point x="401" y="177" type="curve"/>
      <point x="401" y="118"/>
      <point x="381" y="61"/>
      <point x="343" y="10" type="curve"/>
      <point x="368" y="-10" type="line"/>
      <point x="434" y="57"/>
      <point x="488" y="136"/>
      <point x="488" y="227" type="curve"/>
      <point x="488" y="327"/>
      <point x="411" y="410"/>
      <point x="301" y="410" type="curve"/>
      <point x="232" y="410"/>
      <point x="183" y="388"/>
    </contour>
    <contour>
      <point x="151" y="71" type="curve"/>
      <point x="147" y="231"/>
      <point x="147" y="391"/>
      <point x="151" y="551" type="curve"/>
      <point x="152" y="595"/>
      <point x="157" y="666"/>
      <point x="161" y="705" type="curve"/>
      <point x="152" y="710" type="line"/>
      <point x="104" y="701"/>
      <point x="60" y="695"/>
      <point x="20" y="689" type="curve"/>
      <point x="20" y="659" type="line"/>
      <point x="47" y="656"/>
      <point x="54" y="626"/>
      <point x="56" y="596" type="curve"/>
      <point x="65" y="421"/>
      <point x="65" y="245"/>
      <point x="56" y="70" type="curve"/>
      <point x="55" y="52"/>
      <point x="42" y="34"/>
      <point x="28" y="27" type="curve"/>
      <point x="28" y="-3" type="line"/>
      <point x="53" y="-1"/>
      <point x="84" y="0"/>
      <point x="112" y="0" type="curve"/>
      <point x="132" y="0"/>
      <point x="158" y="0"/>
      <point x="182" y="-3" type="curve"/>
      <point x="182" y="27" type="line"/>
      <point x="162" y="34"/>
      <point x="152" y="47"/>
    </contour>
  </outline>
</glyph>
<glyph name="n" format="1">
  <advance width="485"/>
  <unicode hex="006E"/>
  <outline>
    <contour>
      <point x="140" y="337" type="curve"/>
      <point x="149" y="272" type="line"/>
      <point x="173" y="319"/>
      <point x="207" y="341"/>
      <point x="249" y="341" type="curve"/>
      <point x="294" y="341"/>
      <point x="330" y="314"/>
      <point x="335" y="276" type="curve"/>
      <point x="340" y="235"/>
      <point x="339" y="137"/>
      <point x="335" y="96" type="curve"/>
      <point x="332" y="61"/>
      <point x="329" y="43"/>
      <point x="310" y="27" type="curve"/>
      <point x="309" y="-3" type="line"/>
      <point x="362" y="1"/>
      <point x="398" y="0"/>
      <point x="459" y="-3" type="curve"/>
      <point x="460" y="27" type="line"/>
      <point x="439" y="43"/>
      <point x="437" y="56"/>
      <point x="434" y="96" type="curve"/>
      <point x="431" y="142"/>
      <point x="427" y="215"/>
      <point x="433" y="310" type="curve"/>
      <point x="436" y="359"/>
      <point x="383" y="410"/>
      <point x="294" y="410" type="curve"/>
      <point x="264" y="410"/>
      <point x="208" y="378"/>
    </contour>
    <contour>
      <point x="157" y="319" type="curve"/>
      <point x="159" y="400" type="line"/>
      <point x="149" y="409" type="line"/>
      <point x="109" y="392"/>
      <point x="67" y="376"/>
      <point x="25" y="363" type="curve"/>
      <point x="25" y="333" type="line"/>
      <point x="56" y="327"/>
      <point x="64" y="321"/>
      <point x="64" y="282" type="curve"/>
      <point x="64" y="212"/>
      <point x="62" y="105"/>
      <point x="59" y="78" type="curve"/>
      <point x="56" y="53"/>
      <point x="51" y="40"/>
      <point x="36" y="27" type="curve"/>
      <point x="36" y="-3" type="line"/>
      <point x="75" y="1"/>
      <point x="142" y="0"/>
      <point x="187" y="-3" type="curve"/>
      <point x="187" y="27" type="line"/>
      <point x="161" y="47"/>
      <point x="163" y="63"/>
      <point x="160" y="96" type="curve"/>
      <point x="156" y="131"/>
      <point x="159" y="319"/>
    </contour>
  </outline>
</glyph>
<glyph name="o" format="1">
  <advance width="468"/>
  <unicode hex="006F"/>
  <outline>
    <contour>
      <point x="244" y="-10" type="curve"/>
      <point x="359" y="-10"/>
      <point x="443" y="80"/>
      <point x="443" y="197" type="curve"/>
      <point x="443" y="324"/>
      <point x="349" y="410"/>
      <point x="224" y="410" type="curve"/>
      <point x="101" y="410"/>
      <point x="25" y="314"/>
      <point x="25" y="197" type="curve"/>
      <point x="25" y="70"/>
      <point x="119" y="-10"/>
    </contour>
    <contour>
      <point x="348" y="187" type="curve"/>
      <point x="348" y="101"/>
      <point x="304" y="33"/>
      <point x="244" y="33" type="curve"/>
      <point x="168" y="33"/>
      <point x="119" y="114"/>
      <point x="119" y="219" type="curve"/>
      <point x="119" y="319"/>
      <point x="166" y="366"/>
      <point x="228" y="366" type="curve"/>
      <point x="298" y="366"/>
      <point x="348" y="280"/>
    </contour>
    <contour>
      <point x="234" y="0" type="move" name="bottom"/>
    </contour>
    <contour>
      <point x="234" y="200" type="move" name="center"/>
    </contour>
    <contour>
      <point x="421" y="10" type="move" name="ogonek"/>
    </contour>
    <contour>
      <point x="234" y="400" type="move" name="top"/>
    </contour>
    <contour>
      <point x="448" y="400" type="move" name="topright"/>
    </contour>
  </outline>
</glyph>
<glyph name="u" format="1">
  <advance width="478"/>
  <unicode hex="0075"/>
  <outline>
    <contour>
      <point x="333" y="313" type="curve"/>
      <point x="333" y="119" type="line"/>
      <point x="328" y="70" type="line"/>
      <point x="328" y="0" type="line"/>
      <point x="458" y="0" type="line"/>
      <point x="458" y="35" type="line"/>
      <point x="439" y="45"/>
      <point x="432" y="60"/>
      <point x="429" y="105" type="curve"/>
      <point x="426" y="158"/>
      <point x="423" y="248"/>
      <point x="422" y="311" type="curve"/>
      <point x="421" y="339"/>
      <point x="433" y="376"/>
      <point x="438" y="399" type="curve"/>
      <point x="428" y="409" type="line"/>
      <point x="384" y="403"/>
      <point x="328" y="400"/>
      <point x="262" y="399" type="curve"/>
      <point x="262" y="369" type="line"/>
      <point x="300" y="369"/>
      <point x="333" y="353"/>
    </contour>
    <contour>
      <point x="354" y="61" type="curve"/>
      <point x="341" y="119" type="line"/>
      <point x="319" y="72"/>
      <point x="280" y="49"/>
      <point x="242" y="49" type="curve"/>
      <point x="174" y="49"/>
      <point x="159" y="98"/>
      <point x="154" y="153" type="curve"/>
      <point x="150" y="199"/>
      <point x="150" y="283"/>
      <point x="153" y="326" type="curve"/>
      <point x="155" y="354"/>
      <point x="160" y="361"/>
      <point x="178" y="373" type="curve"/>
      <point x="179" y="403" type="line"/>
      <point x="155" y="401"/>
      <point x="135" y="400"/>
      <point x="105" y="400" type="curve"/>
      <point x="83" y="400"/>
      <point x="52" y="402"/>
      <point x="29" y="403" type="curve"/>
      <point x="28" y="373" type="line"/>
      <point x="49" y="363"/>
      <point x="52" y="354"/>
      <point x="54" y="326" type="curve"/>
      <point x="57" y="280"/>
      <point x="60" y="185"/>
      <point x="59" y="119" type="curve"/>
      <point x="58" y="41"/>
      <point x="85" y="-10"/>
      <point x="204" y="-10" type="curve"/>
      <point x="233" y="-10"/>
      <point x="288" y="21"/>
    </contour>
  </outline>
</glyph>
<glyph name="z" format="1">
  <advance width="433"/>
  <unicode hex="007A"/>
  <outline>
    <contour>
      <point x="82" y="-290" type="curve"/>
      <point x="212" y="-290"/>
      <point x="398" y="-78"/>
      <point x="398" y="53" type="curve"/>
      <point x="398" y="132"/>
      <point x="328" y="162"/>
      <point x="280" y="162" type="curve"/>
      <point x="244" y="162"/>
      <point x="204" y="152"/>
      <point x="169" y="134" type="curve"/>
      <point x="418" y="387" type="line"/>
      <point x="400" y="411" type="line"/>
      <point x="314" y="381"/>
      <point x="191" y="403"/>
      <point x="92" y="410" type="curve"/>
      <point x="14" y="330" type="line"/>
      <point x="27" y="308" type="line" smooth="yes"/>
      <point x="80" y="323"/>
      <point x="240" y="304"/>
      <point x="295" y="301" type="curve"/>
      <point x="293" y="316" type="line"/>
      <point x="12" y="33" type="line"/>
      <point x="28" y="0" type="line"/>
      <point x="78" y="33"/>
      <point x="140" y="63"/>
      <point x="212" y="63" type="curve"/>
      <point x="268" y="63"/>
      <point x="303" y="41"/>
      <point x="303" y="-17" type="curve"/>
      <point x="303" y="-97"/>
      <point x="202" y="-230"/>
      <point x="112" y="-230" type="curve"/>
      <point x="87" y="-230"/>
      <point x="78" y="-224"/>
      <point x="70" y="-202" type="curve"/>
      <point x="47" y="-199" type="line"/>
      <point x="10" y="-267" type="line"/>
      <point x="10" y="-272" type="line"/>
      <point x="31" y="-284"/>
      <point x="50" y="-290"/>
    </contour>
  </outline>
</glyph>
<glyph name="a_macr" format="1">
  <advance width="386"/>
  <unicode hex="0101"/>
  <outline>
    <contour>
      <point x="92" y="500" type="curve"/>
      <point x="68" y="513" type="line"/>
      <point x="151" y="608" type="line"/>
      <point x="229" y="608"/>
      <point x="261" y="589"/>
      <point x="335" y="670" type="curve"/>
      <point x="363" y="662" type="line"/>
      <point x="247" y="508" type="line"/>
      <point x="186" y="514"/>
      <point x="141" y="524"/>
    </contour>
    <component base="a"/>
    <contour>
      <point x="181" y="356" type="move" name="_top"/>
    </contour>
    <contour>
      <point x="172" y="629" type="move" name="top"/>
    </contour>
  </outline>
</glyph>
<glyph name="e_macr" format="1">
  <advance width="406"/>
  <unicode hex="0113"/>
  <outline>
    <contour>
      <point x="114" y="485" type="curve"/>
      <point x="90" y="498" type="line"/>
      <point x="163" y="588" type="line"/>
      <point x="241" y="580"/>
      <point x="277" y="570"/>
      <point x="351" y="621" type="curve"/>
      <point x="377" y="611" type="line"/>
      <point x="289" y="492" type="line"/>
      <point x="228" y="498"/>
      <point x="143" y="509"/>
    </contour>
    <component base="e"/>
    <contour>
      <point x="217" y="350" type="move" name="_top"/>
    </contour>
    <contour>
      <point x="208" y="623" type="move" name="top"/>
    </contour>
  </outline>
</glyph>
<glyph name="i_macr" format="1">
  <advance width="259"/>
  <unicode hex="012B"/>
  <outline>
    <contour>
      <point x="27" y="390" type="curve"/>
      <point x="27" y="360" type="line"/>
      <point x="54" y="357"/>
      <point x="62" y="337"/>
      <point x="63" y="307" type="curve"/>
      <point x="65" y="239"/>
      <point x="65" y="170"/>
      <point x="61" y="102" type="curve"/>
      <point x="59" y="60"/>
      <point x="57" y="38"/>
      <point x="45" y="8" type="curve"/>
      <point x="50" y="-10" type="line"/>
      <point x="92" y="-5"/>
      <point x="149" y="0"/>
      <point x="180" y="0" type="curve"/>
      <point x="180" y="30" type="line"/>
      <point x="162" y="64"/>
      <point x="156" y="112"/>
      <point x="156" y="179" type="curve"/>
      <point x="156" y="263"/>
      <point x="156" y="327"/>
      <point x="166" y="405" type="curve"/>
      <point x="159" y="411" type="line"/>
      <point x="111" y="402"/>
      <point x="67" y="396"/>
    </contour>
    <contour>
      <point x="40" y="465" type="curve"/>
      <point x="15" y="474" type="line"/>
      <point x="52" y="587" type="line"/>
      <point x="126" y="579"/>
      <point x="213" y="572"/>
      <point x="222" y="663" type="curve"/>
      <point x="251" y="660" type="line"/>
      <point x="242" y="597"/>
      <point x="218" y="538"/>
      <point x="197" y="505" type="curve"/>
      <point x="137" y="502"/>
      <point x="61" y="496"/>
    </contour>
    <contour>
      <point x="160.55" y="340.771" type="move" name="_top"/>
    </contour>
    <contour>
      <point x="89.828" y="607.363" type="move" name="top"/>
    </contour>
  </outline>
</glyph>
<glyph name="longs" format="1">
  <advance width="260"/>
  <unicode hex="017F"/>
  <outline>
    <contour>
      <point x="39" y="-6" type="curve"/>
      <point x="39" y="28" type="line"/>
      <point x="60" y="40"/>
      <point x="70" y="50"/>
      <point x="70" y="69" type="curve"/>
      <point x="70" y="77"/>
      <point x="73" y="232"/>
      <point x="74" y="343" type="curve"/>
      <point x="29" y="342" type="line"/>
      <point x="30" y="373" type="line"/>
      <point x="51" y="401"/>
      <point x="67" y="421"/>
      <point x="76" y="485" type="curve"/>
      <point x="90" y="581"/>
      <point x="138" y="710"/>
      <point x="276" y="710" type="curve"/>
      <point x="334" y="710"/>
      <point x="378" y="691"/>
      <point x="430" y="666" type="curve"/>
      <point x="430" y="662" type="line"/>
      <point x="378" y="598" type="line"/>
      <point x="373" y="598" type="line"/>
      <point x="343" y="637"/>
      <point x="296" y="665"/>
      <point x="262" y="665" type="curve"/>
      <point x="191" y="665"/>
      <point x="155" y="608"/>
      <point x="156" y="499" type="curve"/>
      <point x="157" y="390"/>
      <point x="160" y="95"/>
      <point x="164" y="75" type="curve"/>
      <point x="170" y="47"/>
      <point x="175" y="37"/>
      <point x="226" y="28" type="curve"/>
      <point x="226" y="-7" type="line"/>
      <point x="168" y="-2"/>
      <point x="108" y="2"/>
    </contour>
    <contour>
      <point x="127" y="355" type="move"/>
    </contour>
  </outline>
</glyph>
<glyph name="p_flour" format="1">
  <advance width="618"/>
  <unicode hex="A752"/>
  <outline>
    <contour>
      <point x="209" y="52" type="curve"/>
      <point x="190" y="74" type="line"/>
      <point x="86" y="37"/>
      <point x="10" y="-29"/>
      <point x="10" y="-89" type="curve"/>
      <point x="10" y="-122"/>
      <point x="26" y="-155"/>
      <point x="55" y="-179" type="curve"/>
      <point x="122" y="-170"/>
      <point x="171" y="-152"/>
      <point x="225" y="-121" type="curve"/>
      <point x="222" y="-99" type="line"/>
      <point x="147" y="-99"/>
      <point x="111" y="-86"/>
      <point x="111" y="-47" type="curve"/>
      <point x="111" y="-13"/>
      <point x="146" y="19"/>
    </contour>
    <component base="p" xOffset="110"/>
  </outline>
</glyph>
<glyph name="q_strok" format="1">
  <advance width="763"/>
  <unicode hex="A759"/>
  <outline>
    <contour>
      <point x="475" y="262" type="curve"/>
      <point x="482" y="244" type="line"/>
      <point x="521" y="277"/>
      <point x="539" y="311"/>
      <point x="581" y="311" type="curve"/>
      <point x="627" y="311"/>
      <point x="650" y="273"/>
      <point x="650" y="232" type="curve"/>
      <point x="650" y="151"/>
      <point x="548" y="16"/>
      <point x="483" y="-47" type="curve"/>
      <point x="490" y="-84" type="line"/>
      <point x="582" y="0"/>
      <point x="738" y="162"/>
      <point x="738" y="264" type="curve"/>
      <point x="738" y="330"/>
      <point x="717" y="413"/>
      <point x="640" y="413" type="curve"/>
      <point x="582" y="413"/>
      <point x="519" y="322"/>
    </contour>
    <contour>
      <point x="40" y="201" type="curve"/>
      <point x="40" y="71"/>
      <point x="119" y="-10"/>
      <point x="269" y="-10" type="curve"/>
      <point x="278" y="-10"/>
      <point x="365" y="26"/>
      <point x="420" y="49" type="curve"/>
      <point x="414" y="-207" type="line" smooth="yes"/>
      <point x="413" y="-238"/>
      <point x="396" y="-244"/>
      <point x="369" y="-253" type="curve"/>
      <point x="369" y="-283" type="line"/>
      <point x="404" y="-282"/>
      <point x="445" y="-280"/>
      <point x="464" y="-280" type="curve"/>
      <point x="481" y="-280"/>
      <point x="528" y="-281"/>
      <point x="543" y="-283" type="curve"/>
      <point x="543" y="-253" type="line"/>
      <point x="520" y="-242"/>
      <point x="511" y="-231"/>
      <point x="509" y="-195" type="curve"/>
      <point x="504" y="-106"/>
      <point x="506" y="163"/>
      <point x="512" y="250" type="curve"/>
      <point x="517" y="326"/>
      <point x="528" y="370"/>
      <point x="534" y="422" type="curve"/>
      <point x="505" y="431" type="line"/>
      <point x="491" y="405"/>
      <point x="471" y="378"/>
      <point x="444" y="342" type="curve"/>
      <point x="386" y="382"/>
      <point x="333" y="410"/>
      <point x="262" y="410" type="curve"/>
      <point x="162" y="410"/>
      <point x="40" y="331"/>
    </contour>
    <contour>
      <point x="140" y="201" type="curve"/>
      <point x="140" y="290"/>
      <point x="198" y="360"/>
      <point x="278" y="360" type="curve"/>
      <point x="401" y="360"/>
      <point x="438" y="241"/>
      <point x="420" y="109" type="curve"/>
      <point x="420" y="108" type="line"/>
      <point x="375" y="60"/>
      <point x="323" y="40"/>
      <point x="280" y="40" type="curve"/>
      <point x="180" y="40"/>
      <point x="140" y="120"/>
    </contour>
  </outline>
</glyph>
<glyph name="l_strok" format="1">
  <advance width="391"/>
  <unicode hex="A769"/>
  <outline>
    <contour>
      <point x="165" y="628" type="line"/>
      <point x="163" y="619" type="line"/>
      <point x="217" y="601"/>
      <point x="256" y="582"/>
      <point x="256" y="526" type="curve"/>
      <point x="256" y="473"/>
      <point x="196" y="399"/>
      <point x="15" y="374" type="curve"/>
      <point x="17" y="368" type="line"/>
      <point x="45" y="353" type="line"/>
      <point x="195" y="367"/>
      <point x="333" y="470"/>
      <point x="333" y="577" type="curve"/>
      <point x="333" y="624"/>
      <point x="305" y="660"/>
      <point x="234" y="691" type="curve"/>
    </contour>
    <component base="l"/>
  </outline>
</glyph>
<glyph name="con" format="1">
  <advance width="415"/>
  <unicode hex="A76F"/>
  <outline>
    <contour>
      <point x="10" y="318" type="curve"/>
      <point x="17" y="340" type="line"/>
      <point x="52" y="380"/>
      <point x="103" y="410"/>
      <point x="181" y="410" type="curve"/>
      <point x="311" y="410"/>
      <point x="385" y="329"/>
      <point x="385" y="199" type="curve"/>
      <point x="385" y="69"/>
      <point x="312" y="-9"/>
      <point x="192" y="-9" type="curve"/>
      <point x="121" y="-9"/>
      <point x="70" y="14"/>
      <point x="31" y="33" type="curve"/>
      <point x="42" y="61" type="line"/>
      <point x="65" y="54"/>
      <point x="102" y="45"/>
      <point x="134" y="45" type="curve"/>
      <point x="214" y="45"/>
      <point x="283" y="106"/>
      <point x="283" y="209" type="curve"/>
      <point x="283" y="305"/>
      <point x="214" y="365"/>
      <point x="138" y="365" type="curve"/>
      <point x="132" y="343"/>
      <point x="125" y="314"/>
      <point x="118" y="287" type="curve"/>
      <point x="109" y="282" type="line"/>
      <point x="80" y="293"/>
      <point x="37" y="306"/>
    </contour>
  </outline>
</glyph>
<glyph name="rum" format="1">
  <advance width="600"/>
  <unicode hex="A775"/>
  <outline>
    <contour>
      <point x="590" y="362" type="curve"/>
      <point x="581" y="330" type="line"/>
      <point x="496" y="339"/>
      <point x="486" y="329"/>
      <point x="462" y="275" type="curve"/>
      <point x="421" y="184"/>
      <point x="367" y="-54"/>
      <point x="244" y="-223" type="curve"/>
      <point x="209" y="-203" type="line"/>
      <point x="370" y="0"/>
      <point x="404" y="302"/>
      <point x="440" y="409" type="curve"/>
      <point x="471" y="401"/>
      <point x="560" y="372"/>
    </contour>
    <contour>
      <point x="5" y="-12" type="curve"/>
      <point x="1" y="22" type="line"/>
      <point x="102" y="93"/>
      <point x="171" y="166"/>
      <point x="171" y="253" type="curve"/>
      <point x="171" y="331"/>
      <point x="88" y="368"/>
      <point x="35" y="333" type="curve"/>
      <point x="32" y="364" type="line"/>
      <point x="70" y="397"/>
      <point x="120" y="410"/>
      <point x="142" y="410" type="curve"/>
      <point x="199" y="410"/>
      <point x="253" y="369"/>
      <point x="253" y="300" type="curve"/>
      <point x="253" y="188"/>
      <point x="129" y="96"/>
      <point x="88" y="47" type="curve"/>
      <point x="92" y="73" type="line"/>
      <point x="88" y="77"/>
      <point x="247" y="83"/>
      <point x="353" y="83" type="curve"/>
      <point x="422" y="83"/>
      <point x="444" y="66"/>
      <point x="503" y="66" type="curve"/>
      <point x="543" y="66"/>
      <point x="548" y="74"/>
      <point x="584" y="88" type="curve"/>
      <point x="596" y="65" type="line"/>
      <point x="576" y="56"/>
      <point x="492" y="-7"/>
      <point x="445" y="-7" type="curve"/>
      <point x="382" y="-7"/>
      <point x="275" y="15"/>
      <point x="173" y="15" type="curve"/>
      <point x="86" y="15"/>
      <point x="42" y="9"/>
    </contour>
  </outline>
</glyph>
<glyph name="r_strok" format="1">
  <advance width="462"/>
  <unicode hex="A776"/>
  <outline>
    <contour>
      <point x="385" y="447" type="curve"/>
      <point x="318" y="447" type="line"/>
      <point x="307" y="336"/>
      <point x="338" y="-21"/>
      <point x="356" y="-186" type="curve"/>
      <point x="396" y="-177" type="line"/>
      <point x="373" y="-20"/>
      <point x="363" y="302"/>
    </contour>
    <contour>
      <point x="266" y="370" type="curve"/>
      <point x="268" y="308" type="line"/>
      <point x="305" y="311"/>
      <point x="440" y="317"/>
      <point x="462" y="313" type="curve"/>
      <point x="460" y="379" type="line"/>
      <point x="408" y="375"/>
      <point x="297" y="370"/>
    </contour>
    <contour>
      <point x="131" y="311" type="curve"/>
      <point x="128" y="264" type="line"/>
      <point x="179" y="325"/>
      <point x="215" y="306"/>
      <point x="256" y="268" type="curve"/>
      <point x="260" y="268" type="line"/>
      <point x="320" y="365" type="line"/>
      <point x="298" y="381"/>
      <point x="227" y="409"/>
      <point x="213" y="409" type="curve"/>
      <point x="184" y="369"/>
      <point x="168" y="350"/>
    </contour>
    <contour>
      <point x="133" y="324" type="curve"/>
      <point x="138" y="399" type="line"/>
      <point x="119" y="409" type="line"/>
      <point x="75" y="393"/>
      <point x="39" y="377"/>
      <point x="0" y="363" type="curve"/>
      <point x="0" y="333" type="line"/>
      <point x="31" y="327"/>
      <point x="39" y="321"/>
      <point x="39" y="282" type="curve"/>
      <point x="39" y="212"/>
      <point x="37" y="105"/>
      <point x="34" y="78" type="curve"/>
      <point x="31" y="53"/>
      <point x="26" y="40"/>
      <point x="11" y="27" type="curve"/>
      <point x="11" y="-3" type="line"/>
      <point x="31" y="-1"/>
      <point x="65" y="0"/>
      <point x="96" y="0" type="curve"/>
      <point x="122" y="0"/>
      <point x="154" y="-1"/>
      <point x="212" y="-3" type="curve"/>
      <point x="212" y="27" type="line"/>
      <point x="156" y="40"/>
      <point x="138" y="43"/>
      <point x="135" y="76" type="curve"/>
      <point x="132" y="106"/>
      <point x="131" y="288"/>
    </contour>
  </outline>
</glyph>
<glyph name="t_stroke" format="1">
  <advance width="586"/>
  <unicode hex="A777"/>
  <outline>
    <contour>
      <point x="10" y="351" type="line"/>
      <point x="12" y="385" type="line"/>
      <point x="65" y="430"/>
      <point x="107" y="457"/>
      <point x="138" y="518" type="curve"/>
      <point x="163" y="509" type="line"/>
      <point x="148" y="418"/>
      <point x="154" y="360"/>
      <point x="149" y="224" type="curve"/>
      <point x="145" y="108"/>
      <point x="154" y="62"/>
      <point x="219" y="62" type="curve"/>
      <point x="268" y="62"/>
      <point x="311" y="76"/>
      <point x="350" y="98" type="curve"/>
      <point x="360" y="73" type="line"/>
      <point x="329" y="43"/>
      <point x="268" y="-9"/>
      <point x="182" y="-9" type="curve"/>
      <point x="67" y="-9"/>
      <point x="55" y="61"/>
      <point x="55" y="184" type="curve"/>
      <point x="55" y="314" type="line" smooth="yes"/>
      <point x="55" y="330"/>
      <point x="51" y="345"/>
      <point x="36" y="347" type="curve"/>
    </contour>
    <contour>
      <point x="138" y="359" type="curve"/>
      <point x="143" y="407" type="line"/>
      <point x="355" y="413"/>
      <point x="473" y="403"/>
      <point x="563" y="440" type="curve"/>
      <point x="581" y="425" type="line"/>
      <point x="507" y="327" type="line"/>
      <point x="348" y="352"/>
      <point x="272" y="363"/>
    </contour>
    <contour>
      <point x="351" y="560" type="curve"/>
      <point x="413" y="568" type="line"/>
      <point x="408" y="344"/>
      <point x="407" y="119"/>
      <point x="413" y="-105" type="curve"/>
      <point x="351" y="-123" type="line"/>
      <point x="356" y="105"/>
      <point x="356" y="332"/>
    </contour>
  </outline>
</glyph>
<glyph name="p_macr" format="1">
  <advance width="506"/>
  <unicode hex="E665"/>
  <outline>
    <contour>
      <point x="220" y="504" type="curve"/>
      <point x="196" y="517" type="line"/>
      <point x="289" y="612" type="line"/>
      <point x="367" y="612"/>
      <point x="403" y="564"/>
      <point x="487" y="644" type="curve"/>
      <point x="512" y="628" type="line"/>
      <point x="375" y="502" type="line"/>
      <point x="314" y="508"/>
      <point x="269" y="528"/>
    </contour>
    <component base="p"/>
    <contour>
      <point x="333" y="360" type="move" name="_top"/>
    </contour>
    <contour>
      <point x="324" y="633" type="move" name="top"/>
    </contour>
  </outline>
</glyph>
<glyph name="q_macr" format="1">
  <advance width="524"/>
  <unicode hex="E681"/>
  <outline>
    <contour>
      <point x="228" y="468" type="curve"/>
      <point x="204" y="481" type="line"/>
      <point x="287" y="576" type="line"/>
      <point x="335" y="576"/>
      <point x="391" y="569"/>
      <point x="445" y="588" type="curve"/>
      <point x="473" y="580" type="line"/>
      <point x="372" y="475" type="line"/>
      <point x="311" y="481"/>
      <point x="277" y="482"/>
    </contour>
    <component base="q"/>
    <contour>
      <point x="361" y="361" type="move" name="_top"/>
    </contour>
    <contour>
      <point x="352" y="634" type="move" name="top"/>
    </contour>
  </outline>
</glyph>
<glyph name="p_p_flour" format="1">
  <advance width="904"/>
  <unicode hex="EED7"/>
  <outline>
    <contour>
      <point x="685" y="40" type="curve"/>
      <point x="600" y="40"/>
      <point x="558" y="117"/>
      <point x="558" y="203" type="curve"/>
      <point x="558" y="279"/>
      <point x="607" y="320"/>
      <point x="666" y="320" type="curve"/>
      <point x="725" y="320"/>
      <point x="782" y="267"/>
      <point x="782" y="177" type="curve"/>
      <point x="782" y="109"/>
      <point x="755" y="40"/>
    </contour>
    <contour>
      <point x="365" y="40" type="curve"/>
      <point x="292" y="40"/>
      <point x="268" y="97"/>
      <point x="268" y="183" type="curve"/>
      <point x="268" y="249"/>
      <point x="302" y="310"/>
      <point x="366" y="310" type="curve"/>
      <point x="405" y="310"/>
      <point x="462" y="277"/>
      <point x="462" y="177" type="curve"/>
      <point x="462" y="109"/>
      <point x="435" y="40"/>
    </contour>
    <contour>
      <point x="131" y="370" type="curve"/>
      <point x="131" y="340" type="line"/>
      <point x="157" y="330"/>
      <point x="172" y="326"/>
      <point x="177" y="250" type="curve"/>
      <point x="183" y="163"/>
      <point x="180" y="-106"/>
      <point x="175" y="-195" type="curve"/>
      <point x="173" y="-231"/>
      <point x="164" y="-242"/>
      <point x="141" y="-253" type="curve"/>
      <point x="141" y="-283" type="line"/>
      <point x="156" y="-281"/>
      <point x="203" y="-280"/>
      <point x="220" y="-280" type="curve"/>
      <point x="239" y="-280"/>
      <point x="280" y="-282"/>
      <point x="305" y="-283" type="curve"/>
      <point x="305" y="-253" type="line"/>
      <point x="288" y="-244"/>
      <point x="270" y="-238"/>
      <point x="270" y="-207" type="curve"/>
      <point x="268" y="22" type="line"/>
      <point x="294" y="7"/>
      <point x="330" y="-8"/>
      <point x="366" y="-8" type="curve"/>
      <point x="393" y="-8"/>
      <point x="436" y="-2"/>
      <point x="470" y="24" type="curve"/>
      <point x="470" y="-67"/>
      <point x="468" y="-150"/>
      <point x="465" y="-195" type="curve"/>
      <point x="463" y="-231"/>
      <point x="454" y="-242"/>
      <point x="431" y="-253" type="curve"/>
      <point x="431" y="-283" type="line"/>
      <point x="446" y="-281"/>
      <point x="493" y="-280"/>
      <point x="510" y="-280" type="curve"/>
      <point x="529" y="-280"/>
      <point x="570" y="-282"/>
      <point x="595" y="-283" type="curve"/>
      <point x="595" y="-253" type="line"/>
      <point x="578" y="-244"/>
      <point x="560" y="-238"/>
      <point x="560" y="-207" type="curve"/>
      <point x="558" y="22" type="line"/>
      <point x="584" y="7"/>
      <point x="620" y="-8"/>
      <point x="666" y="-8" type="curve"/>
      <point x="788" y="-8"/>
      <point x="879" y="97"/>
      <point x="879" y="217" type="curve"/>
      <point x="879" y="327"/>
      <point x="816" y="408"/>
      <point x="716" y="408" type="curve"/>
      <point x="672" y="408"/>
      <point x="606" y="364"/>
      <point x="557" y="328" type="curve"/>
      <point x="560" y="401" type="line"/>
      <point x="548" y="410" type="line"/>
      <point x="440" y="377"/>
      <point x="353" y="353"/>
      <point x="267" y="328" type="curve"/>
      <point x="270" y="401" type="line"/>
      <point x="258" y="410" type="line"/>
      <point x="213" y="394"/>
      <point x="178" y="381"/>
    </contour>
    <contour>
      <point x="199" y="52" type="curve"/>
      <point x="180" y="74" type="line"/>
      <point x="76" y="37"/>
      <point x="0" y="-29"/>
      <point x="0" y="-89" type="curve"/>
      <point x="0" y="-122"/>
      <point x="16" y="-155"/>
      <point x="45" y="-179" type="curve"/>
      <point x="112" y="-170"/>
      <point x="161" y="-152"/>
      <point x="215" y="-121" type="curve"/>
      <point x="212" y="-99" type="line"/>
      <point x="137" y="-99"/>
      <point x="101" y="-86"/>
      <point x="101" y="-47" type="curve"/>
      <point x="101" y="-13"/>
      <point x="136" y="19"/>
    </contour>
  </outline>
</glyph>
<glyph name="G.ss01" format="1">
  <advance width="815"/>
  <outline>
    <contour>
      <point x="92" y="-9" type="curve"/>
      <point x="73" y="13" type="line"/>
      <point x="113" y="76"/>
      <point x="160" y="122"/>
      <point x="160" y="217" type="curve"/>
      <point x="160" y="302"/>
      <point x="79" y="390"/>
      <point x="79" y="447" type="curve"/>
      <point x="79" y="530"/>
      <point x="358" y="689"/>
      <point x="438" y="717" type="curve"/>
      <point x="482" y="707" type="line"/>
      <point x="482" y="703" type="line"/>
      <point x="473" y="696"/>
      <point x="460" y="689"/>
      <point x="460" y="674" type="curve"/>
      <point x="460" y="639"/>
      <point x="518" y="595"/>
      <point x="549" y="595" type="curve"/>
      <point x="583" y="595"/>
      <point x="599" y="660"/>
      <point x="609" y="689" type="curve"/>
      <point x="693" y="667" type="line"/>
      <point x="693" y="662" type="line"/>
      <point x="617" y="582"/>
      <point x="550" y="530"/>
      <point x="484" y="530" type="curve"/>
      <point x="470" y="530"/>
      <point x="414" y="604"/>
      <point x="360" y="635" type="curve"/>
      <point x="333" y="612"/>
      <point x="327" y="592"/>
      <point x="327" y="559" type="curve"/>
      <point x="327" y="496"/>
      <point x="376" y="439"/>
      <point x="376" y="360" type="curve"/>
      <point x="376" y="267"/>
      <point x="328" y="178"/>
      <point x="204" y="98" type="curve"/>
      <point x="258" y="119"/>
      <point x="285" y="119"/>
      <point x="333" y="119" type="curve"/>
      <point x="401" y="119"/>
      <point x="535" y="80"/>
      <point x="569" y="80" type="curve"/>
      <point x="582" y="80"/>
      <point x="658" y="146"/>
      <point x="658" y="250" type="curve"/>
      <point x="658" y="335"/>
      <point x="609" y="390"/>
      <point x="539" y="390" type="curve"/>
      <point x="465" y="390"/>
      <point x="401" y="312"/>
      <point x="316" y="195" type="curve"/>
      <point x="319" y="250" type="line"/>
      <point x="381" y="326"/>
      <point x="497" y="484"/>
      <point x="520" y="484" type="curve"/>
      <point x="657" y="484"/>
      <point x="766" y="431"/>
      <point x="766" y="297" type="curve"/>
      <point x="766" y="172"/>
      <point x="652" y="64"/>
      <point x="520" y="-9" type="curve"/>
      <point x="511" y="-14"/>
      <point x="392" y="39"/>
      <point x="264" y="39" type="curve"/>
      <point x="211" y="39"/>
      <point x="136" y="26"/>
    </contour>
    <contour>
      <point x="185" y="128" type="curve"/>
      <point x="269" y="178"/>
      <point x="292" y="254"/>
      <point x="292" y="322" type="curve"/>
      <point x="292" y="413"/>
      <point x="242" y="483"/>
      <point x="242" y="544" type="curve"/>
      <point x="242" y="558"/>
      <point x="243" y="561"/>
      <point x="246" y="571" type="curve"/>
      <point x="201" y="538"/>
      <point x="183" y="516"/>
      <point x="183" y="465" type="curve"/>
      <point x="183" y="405"/>
      <point x="229" y="336"/>
      <point x="229" y="276" type="curve"/>
      <point x="229" y="232"/>
      <point x="222" y="182"/>
    </contour>
  </outline>
</glyph>
<glyph name="L.ss01" format="1">
  <advance width="890"/>
  <outline>
    <contour>
      <point x="556" y="689" type="line"/>
      <point x="585" y="689" type="line"/>
      <point x="575" y="82" type="line"/>
      <point x="546" y="89" type="line"/>
    </contour>
    <contour>
      <point x="272" y="-7" type="curve"/>
      <point x="256" y="-7" type="line"/>
      <point x="262" y="81" type="line"/>
      <point x="294" y="103"/>
      <point x="350" y="125"/>
      <point x="404" y="125" type="curve"/>
      <point x="497" y="125"/>
      <point x="660" y="88"/>
      <point x="734" y="83" type="curve"/>
      <point x="781" y="80"/>
      <point x="787" y="84"/>
      <point x="826" y="110" type="curve"/>
      <point x="848" y="91" type="line"/>
      <point x="733" y="-15" type="line"/>
      <point x="670" y="4"/>
      <point x="501" y="47"/>
      <point x="407" y="47" type="curve"/>
      <point x="359" y="47"/>
      <point x="293" y="25"/>
    </contour>
    <contour>
      <point x="56" y="518" type="curve"/>
      <point x="29" y="524" type="line"/>
      <point x="44" y="604"/>
      <point x="103" y="686"/>
      <point x="143" y="703" type="curve"/>
      <point x="209" y="694"/>
      <point x="321" y="676"/>
      <point x="411" y="681" type="curve"/>
      <point x="540" y="688"/>
      <point x="568" y="713"/>
      <point x="729" y="709" type="curve"/>
      <point x="728" y="683" type="line"/>
      <point x="541" y="675"/>
      <point x="476" y="591"/>
      <point x="413" y="591" type="curve"/>
      <point x="297" y="591"/>
      <point x="223" y="619"/>
      <point x="145" y="619" type="curve"/>
      <point x="102" y="619"/>
      <point x="73" y="561"/>
    </contour>
    <contour>
      <point x="260" y="396" type="curve"/>
      <point x="260" y="399" type="line"/>
      <point x="385" y="469" type="line"/>
      <point x="378" y="332" type="line"/>
      <point x="354" y="371"/>
      <point x="304" y="382"/>
    </contour>
    <contour>
      <point x="260" y="275" type="line"/>
      <point x="374" y="338" type="line"/>
      <point x="390" y="226" type="line"/>
      <point x="334" y="257"/>
      <point x="297" y="261"/>
      <point x="261" y="272" type="curve"/>
    </contour>
    <contour>
      <point x="468" y="60" type="curve"/>
      <point x="359" y="66" type="line"/>
      <point x="375" y="149"/>
      <point x="375" y="230"/>
      <point x="360" y="660" type="curve"/>
      <point x="458" y="660" type="line"/>
      <point x="458" y="496"/>
      <point x="460" y="274"/>
    </contour>
  </outline>
</glyph>
<glyph name="P.ss01" format="1">
  <advance width="1083"/>
  <outline>
    <contour>
      <point x="88" y="590" type="curve"/>
      <point x="66" y="608" type="line"/>
      <point x="137" y="708" type="line"/>
      <point x="206" y="700"/>
      <point x="260" y="680"/>
      <point x="306" y="653" type="curve"/>
      <point x="298" y="357"/>
      <point x="298" y="61"/>
      <point x="308" y="-235" type="curve"/>
      <point x="190" y="-235" type="line"/>
      <point x="197" y="-113"/>
      <point x="199" y="219"/>
      <point x="199" y="584" type="curve"/>
      <point x="179" y="612"/>
      <point x="124" y="616"/>
    </contour>
    <contour>
      <point x="228" y="225" type="curve"/>
      <point x="233" y="120" type="line"/>
      <point x="193" y="120"/>
      <point x="151" y="108"/>
      <point x="98" y="82" type="curve"/>
      <point x="83" y="121" type="line"/>
      <point x="134" y="156"/>
      <point x="170" y="174"/>
    </contour>
    <contour>
      <point x="401" y="-234" type="line"/>
      <point x="401" y="650" type="line"/>
      <point x="443" y="650" type="line"/>
      <point x="443" y="-234" type="line"/>
    </contour>
    <contour>
      <point x="424" y="111" type="curve"/>
      <point x="424" y="530" type="line"/>
      <point x="496" y="655"/>
      <point x="582" y="708"/>
      <point x="706" y="708" type="curve"/>
      <point x="909" y="708"/>
      <point x="1021" y="576"/>
      <point x="1021" y="383" type="curve"/>
      <point x="1021" y="175"/>
      <point x="792" y="13"/>
      <point x="665" y="-7" type="curve"/>
      <point x="559" y="13"/>
      <point x="496" y="61"/>
    </contour>
    <contour>
      <point x="683" y="610" type="curve"/>
      <point x="568" y="610"/>
      <point x="499" y="576"/>
      <point x="431" y="483" type="curve"/>
      <point x="436" y="225" type="line"/>
      <point x="507" y="159"/>
      <point x="608" y="90"/>
      <point x="691" y="90" type="curve"/>
      <point x="807" y="90"/>
      <point x="927" y="194"/>
      <point x="927" y="360" type="curve"/>
      <point x="927" y="483"/>
      <point x="851" y="610"/>
    </contour>
    <contour>
      <point x="652" y="269" type="line"/>
      <point x="576" y="359" type="line"/>
      <point x="669" y="425" type="line"/>
      <point x="742" y="338" type="line"/>
    </contour>
  </outline>
</glyph>
<glyph name="Q_u" format="1">
  <advance width="1314"/>
  <outline>
    <contour>
      <point x="328" y="42" type="curve"/>
      <point x="548" y="13" type="line"/>
      <point x="685" y="-147"/>
      <point x="933" y="-256"/>
      <point x="1218" y="-190" type="curve"/>
      <point x="1228" y="-222" type="line"/>
      <point x="910" y="-302"/>
      <point x="618" y="-225"/>
    </contour>
    <contour>
      <point x="1164" y="70" type="line"/>
      <point x="1169" y="119" type="line"/>
      <point x="1169" y="313" type="line" smooth="yes"/>
      <point x="1169" y="353"/>
      <point x="1136" y="369"/>
      <point x="1098" y="369" type="curve"/>
      <point x="1098" y="399" type="line"/>
      <point x="1164" y="400"/>
      <point x="1220" y="403"/>
      <point x="1264" y="409" type="curve"/>
      <point x="1274" y="399" type="line"/>
      <point x="1269" y="376"/>
      <point x="1258" y="339"/>
      <point x="1258" y="311" type="curve"/>
      <point x="1258" y="248"/>
      <point x="1261" y="158"/>
      <point x="1265" y="105" type="curve"/>
      <point x="1268" y="60"/>
      <point x="1275" y="45"/>
      <point x="1294" y="35" type="curve"/>
      <point x="1294" y="0" type="line"/>
      <point x="1164" y="0" type="line"/>
    </contour>
    <contour>
      <point x="1177" y="119" type="curve"/>
      <point x="1190" y="61" type="line"/>
      <point x="1124" y="21"/>
      <point x="1069" y="-10"/>
      <point x="1040" y="-10" type="curve"/>
      <point x="921" y="-10"/>
      <point x="894" y="41"/>
      <point x="895" y="119" type="curve"/>
      <point x="896" y="185"/>
      <point x="893" y="280"/>
      <point x="890" y="326" type="curve"/>
      <point x="888" y="354"/>
      <point x="885" y="363"/>
      <point x="814" y="373" type="curve"/>
      <point x="813" y="403" type="line"/>
      <point x="896" y="401"/>
      <point x="952" y="398"/>
      <point x="1015" y="403" type="curve"/>
      <point x="1014" y="373" type="line"/>
      <point x="996" y="361"/>
      <point x="991" y="354"/>
      <point x="989" y="326" type="curve"/>
      <point x="986" y="283"/>
      <point x="986" y="199"/>
      <point x="990" y="153" type="curve"/>
      <point x="995" y="98"/>
      <point x="1010" y="49"/>
      <point x="1078" y="49" type="curve"/>
      <point x="1116" y="49"/>
      <point x="1155" y="72"/>
    </contour>
    <contour>
      <point x="426" y="670" type="curve"/>
      <point x="244" y="670"/>
      <point x="164" y="525"/>
      <point x="164" y="374" type="curve"/>
      <point x="164" y="200"/>
      <point x="262" y="30"/>
      <point x="435" y="30" type="curve"/>
      <point x="618" y="30"/>
      <point x="708" y="169"/>
      <point x="708" y="340" type="curve"/>
      <point x="708" y="504"/>
      <point x="598" y="670"/>
    </contour>
    <contour>
      <point x="429" y="-10" type="curve"/>
      <point x="214" y="-10"/>
      <point x="40" y="142"/>
      <point x="40" y="352" type="curve"/>
      <point x="40" y="554"/>
      <point x="219" y="710"/>
      <point x="435" y="710" type="curve"/>
      <point x="651" y="710"/>
      <point x="825" y="558"/>
      <point x="825" y="348" type="curve"/>
      <point x="825" y="146"/>
      <point x="645" y="-10"/>
    </contour>
  </outline>
</glyph>
<glyph name="S.ss01" format="1">
  <advance width="706"/>
  <outline>
    <contour>
      <point x="346" y="71" type="curve"/>
      <point x="379" y="57" type="line"/>
      <point x="440" y="102"/>
      <point x="490" y="150"/>
      <point x="490" y="213" type="curve"/>
      <point x="490" y="280"/>
      <point x="439" y="320"/>
      <point x="358" y="320" type="curve"/>
      <point x="300" y="320"/>
      <point x="246" y="312"/>
      <point x="200" y="312" type="curve"/>
      <point x="151" y="312"/>
      <point x="115" y="328"/>
      <point x="115" y="363" type="curve"/>
      <point x="115" y="407"/>
      <point x="161" y="446"/>
      <point x="273" y="426" type="curve"/>
      <point x="267" y="443" type="line"/>
      <point x="149" y="483"/>
      <point x="30" y="398"/>
      <point x="30" y="320" type="curve"/>
      <point x="30" y="253"/>
      <point x="83" y="225"/>
      <point x="156" y="225" type="curve"/>
      <point x="238" y="225"/>
      <point x="277" y="243"/>
      <point x="336" y="243" type="curve"/>
      <point x="391" y="243"/>
      <point x="431" y="223"/>
      <point x="431" y="170" type="curve"/>
      <point x="431" y="131"/>
      <point x="400" y="93"/>
    </contour>
    <contour>
      <point x="42" y="11" type="curve"/>
      <point x="59" y="-15" type="line"/>
      <point x="113" y="16"/>
      <point x="150" y="34"/>
      <point x="197" y="34" type="curve"/>
      <point x="277" y="34"/>
      <point x="384" y="-6"/>
      <point x="424" y="-15" type="curve"/>
      <point x="499" y="36"/>
      <point x="617" y="96"/>
      <point x="669" y="187" type="curve"/>
      <point x="709" y="399"/>
      <point x="581" y="461"/>
      <point x="415" y="486" type="curve"/>
      <point x="297" y="504"/>
      <point x="167" y="527"/>
      <point x="167" y="579" type="curve"/>
      <point x="167" y="599"/>
      <point x="185" y="627"/>
      <point x="224" y="627" type="curve"/>
      <point x="262" y="627"/>
      <point x="332" y="606"/>
      <point x="332" y="566" type="curve"/>
      <point x="332" y="546"/>
      <point x="287" y="512"/>
      <point x="266" y="494" type="curve"/>
      <point x="306" y="477" type="line"/>
      <point x="350" y="525"/>
      <point x="408" y="577"/>
      <point x="455" y="625" type="curve"/>
      <point x="455" y="629" type="line"/>
      <point x="387" y="652"/>
      <point x="266" y="709"/>
      <point x="245" y="718" type="curve"/>
      <point x="216" y="691"/>
      <point x="128" y="613"/>
      <point x="80" y="545" type="curve"/>
      <point x="119" y="452"/>
      <point x="236" y="428"/>
      <point x="353" y="413" type="curve"/>
      <point x="490" y="396"/>
      <point x="593" y="350"/>
      <point x="593" y="237" type="curve"/>
      <point x="593" y="139"/>
      <point x="521" y="64"/>
      <point x="429" y="64" type="curve"/>
      <point x="371" y="64"/>
      <point x="319" y="78"/>
      <point x="254" y="78" type="curve"/>
      <point x="180" y="78"/>
      <point x="87" y="40"/>
    </contour>
  </outline>
</glyph>
<glyph name="U.ss01" format="1">
  <advance width="871"/>
  <outline>
    <contour>
      <point x="743" y="725" type="line"/>
      <point x="639" y="653" type="line"/>
      <point x="633" y="243" type="line"/>
      <point x="629" y="2" type="line" smooth="yes"/>
      <point x="629" y="-7"/>
      <point x="663" y="4"/>
      <point x="742" y="-10" type="curve"/>
      <point x="752" y="-10"/>
      <point x="801" y="36"/>
      <point x="831" y="71" type="curve"/>
      <point x="824" y="96" type="line"/>
      <point x="802" y="91"/>
      <point x="789" y="90"/>
      <point x="770" y="90" type="curve"/>
      <point x="733" y="90"/>
      <point x="711" y="204"/>
      <point x="711" y="294" type="curve"/>
      <point x="711" y="448"/>
      <point x="720" y="605"/>
      <point x="763" y="710" type="curve"/>
    </contour>
    <contour>
      <point x="417" y="49" type="curve"/>
      <point x="272" y="49"/>
      <point x="200" y="151"/>
      <point x="200" y="292" type="curve"/>
      <point x="200" y="455"/>
      <point x="318" y="571"/>
      <point x="424" y="676" type="curve"/>
      <point x="424" y="41" type="line"/>
      <point x="454" y="41" type="line"/>
      <point x="454" y="719" type="line"/>
      <point x="371" y="709"/>
      <point x="256" y="709"/>
      <point x="155" y="719" type="curve"/>
      <point x="107" y="612" type="line"/>
      <point x="126" y="605" type="line"/>
      <point x="194" y="628"/>
      <point x="280" y="626"/>
      <point x="352" y="626" type="curve"/>
      <point x="335" y="639" type="line"/>
      <point x="274" y="573"/>
      <point x="90" y="420"/>
      <point x="90" y="255" type="curve"/>
      <point x="90" y="103"/>
      <point x="188" y="-11"/>
      <point x="371" y="-11" type="curve"/>
      <point x="560" y="-11"/>
      <point x="676" y="160"/>
      <point x="676" y="287" type="curve"/>
      <point x="635" y="292" type="line"/>
      <point x="635" y="162"/>
      <point x="553" y="49"/>
    </contour>
    <contour>
      <point x="440" y="227" type="line"/>
      <point x="527" y="309" type="line"/>
      <point x="435" y="391" type="line"/>
      <point x="351" y="307" type="line"/>
    </contour>
    <contour>
      <point x="45" y="0"/>
      <point x="45" y="0"/>
    </contour>
  </outline>
</glyph>
<glyph name="ampersand.ss01" format="1">
  <advance width="325"/>
  <outline>
    <contour>
      <point x="180" y="313" type="curve"/>
      <point x="140" y="334"/>
      <point x="84" y="361"/>
      <point x="28" y="349" type="curve"/>
      <point x="15" y="371" type="line"/>
      <point x="102" y="429" type="line"/>
      <point x="172" y="388"/>
      <point x="220" y="361"/>
      <point x="261" y="411" type="curve"/>
      <point x="280" y="401" type="line"/>
      <point x="229" y="281"/>
      <point x="194" y="132"/>
      <point x="194" y="89" type="curve"/>
      <point x="194" y="52"/>
      <point x="240" y="43"/>
      <point x="290" y="45" type="curve"/>
      <point x="288" y="23" type="line"/>
      <point x="261" y="10"/>
      <point x="230" y="-8"/>
      <point x="196" y="-8" type="curve"/>
      <point x="154" y="-8"/>
      <point x="115" y="10"/>
      <point x="115" y="60" type="curve"/>
      <point x="115" y="124"/>
      <point x="175" y="259"/>
    </contour>
    <contour>
      <point x="57" y="188" type="line"/>
      <point x="73" y="233" type="line"/>
      <point x="149" y="233"/>
      <point x="224" y="227"/>
      <point x="300" y="232" type="curve"/>
      <point x="302" y="223" type="line"/>
      <point x="285" y="180" type="line"/>
      <point x="210" y="180"/>
      <point x="106" y="191"/>
      <point x="61" y="181" type="curve"/>
    </contour>
  </outline>
</glyph>
<glyph name="c_strok" format="1">
  <advance width="514"/>
  <outline>
    <contour>
      <point x="354" y="490" type="curve"/>
      <point x="355" y="511" type="line"/>
      <point x="464" y="513" type="line"/>
      <point x="466" y="493" type="line"/>
      <point x="430" y="470"/>
      <point x="429" y="463"/>
      <point x="427" y="377" type="curve"/>
      <point x="423" y="213"/>
      <point x="393" y="30"/>
      <point x="432" y="-117" type="curve"/>
      <point x="392" y="-123" type="line"/>
      <point x="368" y="21"/>
      <point x="390" y="214"/>
      <point x="388" y="377" type="curve"/>
      <point x="387" y="471"/>
      <point x="388" y="480"/>
    </contour>
    <contour>
      <point x="477" y="457" type="curve"/>
      <point x="504" y="457" type="line"/>
      <point x="504" y="359" type="line"/>
      <point x="471" y="328"/>
      <point x="446" y="315"/>
      <point x="414" y="294" type="curve"/>
      <point x="346" y="326"/>
      <point x="267" y="358"/>
      <point x="207" y="358" type="curve"/>
      <point x="184" y="358"/>
      <point x="132" y="305"/>
      <point x="132" y="209" type="curve"/>
      <point x="132" y="106"/>
      <point x="171" y="45"/>
      <point x="251" y="45" type="curve"/>
      <point x="313" y="45"/>
      <point x="338" y="69"/>
      <point x="361" y="91" type="curve"/>
      <point x="372" y="63" type="line"/>
      <point x="333" y="25"/>
      <point x="294" y="-9"/>
      <point x="223" y="-9" type="curve"/>
      <point x="103" y="-9"/>
      <point x="30" y="69"/>
      <point x="30" y="199" type="curve"/>
      <point x="30" y="329"/>
      <point x="114" y="410"/>
      <point x="244" y="410" type="curve"/>
      <point x="310" y="410"/>
      <point x="345" y="388"/>
      <point x="411" y="388" type="curve"/>
      <point x="465" y="388"/>
      <point x="478" y="410"/>
    </contour>
  </outline>
</glyph>
<glyph name="e_hook" format="1">
  <advance width="406"/>
  <outline>
    <contour>
      <point x="144" y="592" type="curve"/>
      <point x="133" y="592" type="line"/>
      <point x="75" y="512" type="line"/>
      <point x="120" y="486"/>
      <point x="182" y="475"/>
      <point x="215" y="475" type="curve"/>
      <point x="285" y="475"/>
      <point x="338" y="526"/>
      <point x="363" y="586" type="curve"/>
      <point x="326" y="596" type="line"/>
      <point x="317" y="555"/>
      <point x="290" y="524"/>
      <point x="252" y="524" type="curve"/>
      <point x="215" y="524"/>
      <point x="174" y="549"/>
    </contour>
    <component base="e"/>
    <contour>
      <point x="405.061" y="480.716" type="move" name="_top"/>
    </contour>
    <contour>
      <point x="219.321" y="668.757" type="move" name="top"/>
    </contour>
  </outline>
</glyph>
<glyph name="f_f" format="1">
  <advance width="730"/>
  <outline>
    <contour>
      <point x="291" y="26" type="curve"/>
      <point x="291" y="-4" type="line"/>
      <point x="400" y="2"/>
      <point x="450" y="0"/>
      <point x="528" y="-5" type="curve"/>
      <point x="528" y="25" type="line"/>
      <point x="466" y="38"/>
      <point x="449" y="37"/>
      <point x="448" y="103" type="curve"/>
      <point x="446" y="347" type="line"/>
      <point x="483" y="348"/>
      <point x="562" y="348"/>
      <point x="602" y="347" type="curve"/>
      <point x="636" y="383" type="line"/>
      <point x="635" y="394" type="line"/>
      <point x="572" y="392"/>
      <point x="508" y="388"/>
      <point x="445" y="390" type="curve"/>
      <point x="439" y="426"/>
      <point x="433" y="471"/>
      <point x="434" y="527" type="curve"/>
      <point x="436" y="615"/>
      <point x="505" y="656"/>
      <point x="570" y="656" type="curve"/>
      <point x="618" y="656"/>
      <point x="664" y="640"/>
      <point x="687" y="584" type="curve"/>
      <point x="769" y="584" type="line"/>
      <point x="770" y="598" type="line"/>
      <point x="762" y="649"/>
      <point x="705" y="710"/>
      <point x="581" y="710" type="curve"/>
      <point x="461" y="710"/>
      <point x="356" y="617"/>
      <point x="356" y="514" type="curve"/>
      <point x="356" y="362"/>
      <point x="356" y="232"/>
      <point x="356" y="78" type="curve"/>
      <point x="356" y="56"/>
      <point x="351" y="34"/>
    </contour>
    <contour>
      <point x="-28" y="26" type="curve"/>
      <point x="-28" y="-4" type="line"/>
      <point x="51" y="2"/>
      <point x="101" y="0"/>
      <point x="179" y="-5" type="curve"/>
      <point x="179" y="25" type="line"/>
      <point x="117" y="38"/>
      <point x="100" y="37"/>
      <point x="99" y="103" type="curve"/>
      <point x="97" y="347" type="line"/>
      <point x="134" y="347"/>
      <point x="331" y="346"/>
      <point x="371" y="348" type="curve"/>
      <point x="375" y="391" type="line"/>
      <point x="97" y="390" type="line"/>
      <point x="97" y="444" type="line" smooth="yes"/>
      <point x="97" y="542"/>
      <point x="153" y="612"/>
      <point x="248" y="612" type="curve"/>
      <point x="306" y="612"/>
      <point x="349" y="583"/>
      <point x="371" y="553" type="curve"/>
      <point x="412" y="558" type="line"/>
      <point x="414" y="620" type="line"/>
      <point x="376" y="640"/>
      <point x="312" y="658"/>
      <point x="248" y="658" type="curve"/>
      <point x="108" y="658"/>
      <point x="8" y="561"/>
      <point x="8" y="458" type="curve"/>
      <point x="8" y="416"/>
      <point x="9" y="424"/>
      <point x="10" y="392" type="curve"/>
      <point x="8" y="390" type="line"/>
      <point x="-20" y="390" type="line"/>
      <point x="-20" y="352" type="line"/>
      <point x="-10" y="351"/>
      <point x="0" y="349"/>
      <point x="9" y="345" type="curve"/>
      <point x="11" y="266"/>
      <point x="11" y="147"/>
      <point x="7" y="68" type="curve"/>
      <point x="6" y="46"/>
      <point x="2" y="32"/>
    </contour>
  </outline>
</glyph>
<glyph name="g_ra" format="1">
  <advance width="600"/>
  <outline>
    <contour>
      <point x="55" y="241" type="curve"/>
      <point x="55" y="154"/>
      <point x="117" y="83"/>
      <point x="231" y="83" type="curve"/>
      <point x="371" y="83"/>
      <point x="447" y="152"/>
      <point x="447" y="259" type="curve"/>
      <point x="447" y="298"/>
      <point x="434" y="323"/>
      <point x="423" y="349" type="curve"/>
      <point x="466" y="351"/>
      <point x="525" y="342"/>
      <point x="568" y="340" type="curve"/>
      <point x="591" y="393" type="line"/>
      <point x="585" y="400" type="line"/>
      <point x="452" y="392"/>
      <point x="320" y="410"/>
      <point x="264" y="410" type="curve"/>
      <point x="149" y="410"/>
      <point x="55" y="347"/>
    </contour>
    <contour>
      <point x="143" y="247" type="curve"/>
      <point x="143" y="322"/>
      <point x="188" y="370"/>
      <point x="251" y="370" type="curve"/>
      <point x="325" y="370"/>
      <point x="359" y="306"/>
      <point x="359" y="244" type="curve"/>
      <point x="359" y="174"/>
      <point x="331" y="111"/>
      <point x="250" y="111" type="curve"/>
      <point x="168" y="111"/>
      <point x="143" y="184"/>
    </contour>
    <contour>
      <point x="231" y="84" type="curve"/>
      <point x="178" y="105" type="line"/>
      <point x="66" y="34" type="line"/>
      <point x="66" y="-21"/>
      <point x="144" y="-72"/>
      <point x="210" y="-71" type="curve"/>
      <point x="269" y="-70"/>
      <point x="347" y="-66"/>
      <point x="406" y="-67" type="curve"/>
      <point x="481" y="-68"/>
      <point x="515" y="-109"/>
      <point x="515" y="-158" type="curve"/>
      <point x="515" y="-221"/>
      <point x="438" y="-256"/>
      <point x="328" y="-256" type="curve"/>
      <point x="213" y="-256"/>
      <point x="153" y="-205"/>
      <point x="153" y="-161" type="curve"/>
      <point x="153" y="-119"/>
      <point x="184" y="-85"/>
      <point x="242" y="-68" type="curve"/>
      <point x="214" y="-49" type="line"/>
      <point x="143" y="-71"/>
      <point x="67" y="-116"/>
      <point x="67" y="-170" type="curve"/>
      <point x="67" y="-253"/>
      <point x="180" y="-288"/>
      <point x="328" y="-288" type="curve"/>
      <point x="460" y="-288"/>
      <point x="584" y="-209"/>
      <point x="584" y="-119" type="curve"/>
      <point x="584" y="-46"/>
      <point x="517" y="4"/>
      <point x="390" y="2" type="curve"/>
      <point x="265" y="0" type="line" smooth="yes"/>
      <point x="188" y="-1"/>
      <point x="171" y="28"/>
      <point x="171" y="46" type="curve"/>
      <point x="171" y="62"/>
      <point x="196" y="84"/>
    </contour>
    <contour>
      <point x="112" y="547" type="curve"/>
      <point x="86" y="564" type="line"/>
      <point x="168" y="658" type="line"/>
      <point x="189" y="628"/>
      <point x="214" y="603"/>
      <point x="235" y="584" type="curve"/>
      <point x="248" y="597"/>
      <point x="273" y="621"/>
      <point x="294" y="647" type="curve"/>
      <point x="329" y="621"/>
      <point x="352" y="599"/>
      <point x="378" y="599" type="curve"/>
      <point x="421" y="599"/>
      <point x="452" y="618"/>
      <point x="494" y="655" type="curve"/>
      <point x="512" y="636" type="line"/>
      <point x="463" y="571"/>
      <point x="381" y="534"/>
      <point x="342" y="521" type="curve"/>
      <point x="317" y="542"/>
      <point x="285" y="569"/>
      <point x="262" y="569" type="curve"/>
      <point x="246" y="569"/>
      <point x="231" y="543"/>
      <point x="212" y="517" type="curve"/>
      <point x="181" y="546"/>
      <point x="156" y="567"/>
      <point x="136" y="567" type="curve"/>
      <point x="131" y="567"/>
      <point x="123" y="563"/>
    </contour>
  </outline>
</glyph>
<glyph name="g_ring" format="1">
  <advance width="526"/>
  <outline>
    <contour>
      <point x="11" y="241" type="curve"/>
      <point x="11" y="154"/>
      <point x="79" y="83"/>
      <point x="193" y="83" type="curve"/>
      <point x="333" y="83"/>
      <point x="416" y="152"/>
      <point x="416" y="259" type="curve"/>
      <point x="416" y="298"/>
      <point x="396" y="323"/>
      <point x="385" y="349" type="curve"/>
      <point x="408" y="351"/>
      <point x="437" y="348"/>
      <point x="480" y="350" type="curve"/>
      <point x="487" y="403" type="line"/>
      <point x="481" y="410" type="line"/>
      <point x="348" y="402"/>
      <point x="282" y="410"/>
      <point x="226" y="410" type="curve"/>
      <point x="111" y="410"/>
      <point x="11" y="347"/>
    </contour>
    <contour>
      <point x="105" y="247" type="curve"/>
      <point x="105" y="322"/>
      <point x="150" y="370"/>
      <point x="213" y="370" type="curve"/>
      <point x="287" y="370"/>
      <point x="321" y="306"/>
      <point x="321" y="244" type="curve"/>
      <point x="321" y="174"/>
      <point x="293" y="111"/>
      <point x="212" y="111" type="curve"/>
      <point x="130" y="111"/>
      <point x="105" y="184"/>
    </contour>
    <contour>
      <point x="193" y="84" type="curve"/>
      <point x="130" y="105" type="line"/>
      <point x="48" y="54" type="line"/>
      <point x="48" y="36" type="line"/>
      <point x="107" y="20"/>
      <point x="140" y="-3"/>
      <point x="217" y="-22" type="curve"/>
      <point x="362" y="-58"/>
      <point x="423" y="-93"/>
      <point x="423" y="-154" type="curve"/>
      <point x="423" y="-227"/>
      <point x="343" y="-254"/>
      <point x="265" y="-254" type="curve"/>
      <point x="150" y="-254"/>
      <point x="97" y="-217"/>
      <point x="97" y="-137" type="curve"/>
      <point x="97" y="-83"/>
      <point x="139" y="-27"/>
      <point x="207" y="18" type="curve"/>
      <point x="164" y="27" type="line"/>
      <point x="93" y="-23"/>
      <point x="10" y="-77"/>
      <point x="10" y="-149" type="curve"/>
      <point x="10" y="-232"/>
      <point x="112" y="-288"/>
      <point x="260" y="-288" type="curve"/>
      <point x="392" y="-288"/>
      <point x="516" y="-207"/>
      <point x="516" y="-127" type="curve"/>
      <point x="516" y="-32"/>
      <point x="381" y="-5"/>
      <point x="257" y="22" type="curve"/>
      <point x="153" y="45"/>
      <point x="133" y="52"/>
      <point x="133" y="59" type="curve"/>
      <point x="133" y="75"/>
      <point x="158" y="84"/>
    </contour>
    <contour>
      <point x="231" y="508" type="curve"/>
      <point x="306" y="508"/>
      <point x="366" y="555"/>
      <point x="367" y="633" type="curve"/>
      <point x="367" y="722"/>
      <point x="306" y="758"/>
      <point x="231" y="758" type="curve"/>
      <point x="157" y="758"/>
      <point x="96" y="707"/>
      <point x="96" y="628" type="curve"/>
      <point x="97" y="551"/>
      <point x="157" y="508"/>
    </contour>
    <contour>
      <point x="233" y="551" type="curve"/>
      <point x="188" y="551"/>
      <point x="147" y="581"/>
      <point x="148" y="633" type="curve"/>
      <point x="149" y="684"/>
      <point x="188" y="706"/>
      <point x="233" y="707" type="curve"/>
      <point x="279" y="707"/>
      <point x="318" y="677"/>
      <point x="317" y="626" type="curve"/>
      <point x="316" y="574"/>
      <point x="276" y="551"/>
    </contour>
  </outline>
</glyph>
<glyph name="i_hook" format="1">
  <advance width="215"/>
  <outline>
    <contour>
      <point x="85" y="701" type="curve"/>
      <point x="21" y="620" type="line"/>
      <point x="73" y="606"/>
      <point x="116" y="591"/>
      <point x="116" y="556" type="curve"/>
      <point x="116" y="525"/>
      <point x="60" y="500"/>
      <point x="17" y="484" type="curve"/>
      <point x="21" y="454" type="line"/>
      <point x="128" y="498"/>
      <point x="187" y="532"/>
      <point x="187" y="597" type="curve"/>
      <point x="187" y="640"/>
      <point x="153" y="685"/>
    </contour>
    <contour>
      <point x="137" y="411" type="line"/>
      <point x="35" y="385" type="line"/>
      <point x="44" y="304"/>
      <point x="45" y="255"/>
      <point x="44" y="93" type="curve"/>
      <point x="44" y="51"/>
      <point x="33" y="43"/>
      <point x="-14" y="23" type="curve"/>
      <point x="-13" y="-5" type="line"/>
      <point x="29" y="0"/>
      <point x="110" y="1"/>
      <point x="161" y="0" type="curve"/>
      <point x="161" y="30" type="line"/>
      <point x="143" y="44"/>
      <point x="138" y="58"/>
      <point x="137" y="95" type="curve"/>
      <point x="135" y="158"/>
      <point x="135" y="220"/>
      <point x="137" y="283" type="curve"/>
      <point x="138" y="324"/>
      <point x="141" y="375"/>
      <point x="144" y="405" type="curve"/>
    </contour>
  </outline>
</glyph>
<glyph name="i_ring" format="1">
  <advance width="230"/>
  <outline>
    <contour>
      <point x="125" y="476" type="curve"/>
      <point x="183" y="475"/>
      <point x="246" y="520"/>
      <point x="245" y="590" type="curve"/>
      <point x="244" y="654"/>
      <point x="201" y="705"/>
      <point x="125" y="705" type="curve"/>
      <point x="58" y="705"/>
      <point x="4" y="653"/>
      <point x="4" y="590" type="curve"/>
      <point x="4" y="518"/>
      <point x="58" y="477"/>
    </contour>
    <contour>
      <point x="128" y="516" type="curve"/>
      <point x="88" y="516"/>
      <point x="57" y="546"/>
      <point x="57" y="586" type="curve"/>
      <point x="57" y="623"/>
      <point x="85" y="653"/>
      <point x="124" y="653" type="curve"/>
      <point x="161" y="653"/>
      <point x="197" y="628"/>
      <point x="197" y="586" type="curve"/>
      <point x="197" y="546"/>
      <point x="170" y="516"/>
    </contour>
    <contour>
      <point x="13" y="400" type="curve"/>
      <point x="13" y="370" type="line"/>
      <point x="70" y="362"/>
      <point x="65" y="362"/>
      <point x="66" y="317" type="curve"/>
      <point x="68" y="249"/>
      <point x="68" y="170"/>
      <point x="64" y="102" type="curve"/>
      <point x="62" y="60"/>
      <point x="57" y="28"/>
      <point x="55" y="-2" type="curve"/>
      <point x="73" y="-16" type="line"/>
      <point x="105" y="-1"/>
      <point x="123" y="10"/>
      <point x="162" y="27" type="curve"/>
      <point x="160" y="90"/>
      <point x="160" y="220"/>
      <point x="162" y="283" type="curve"/>
      <point x="163" y="324"/>
      <point x="166" y="367"/>
      <point x="169" y="397" type="curve"/>
      <point x="166" y="403" type="line"/>
      <point x="118" y="403"/>
      <point x="63" y="403"/>
    </contour>
  </outline>
</glyph>
<glyph name="longs_longs" format="1">
  <advance width="560"/>
  <outline>
    <contour>
      <point x="37" y="-6" type="curve"/>
      <point x="37" y="28" type="line"/>
      <point x="68" y="40"/>
      <point x="70" y="40"/>
      <point x="70" y="69" type="curve"/>
      <point x="70" y="127"/>
      <point x="73" y="232"/>
      <point x="74" y="343" type="curve"/>
      <point x="29" y="342" type="line"/>
      <point x="30" y="373" type="line"/>
      <point x="51" y="401"/>
      <point x="68" y="413"/>
      <point x="76" y="485" type="curve"/>
      <point x="87" y="582"/>
      <point x="138" y="710"/>
      <point x="276" y="710" type="curve"/>
      <point x="334" y="710"/>
      <point x="418" y="691"/>
      <point x="470" y="666" type="curve"/>
      <point x="470" y="662" type="line"/>
      <point x="413" y="588" type="line"/>
      <point x="383" y="637"/>
      <point x="336" y="665"/>
      <point x="272" y="665" type="curve"/>
      <point x="201" y="665"/>
      <point x="158" y="598"/>
      <point x="159" y="499" type="curve"/>
      <point x="160" y="390"/>
      <point x="162" y="95"/>
      <point x="164" y="75" type="curve"/>
      <point x="167" y="35"/>
      <point x="172" y="36"/>
      <point x="223" y="27" type="curve"/>
      <point x="226" y="-7" type="line"/>
      <point x="190" y="-5"/>
      <point x="79" y="-1"/>
    </contour>
    <component base="longs" xOffset="300"/>
  </outline>
</glyph>
<glyph name="longs_strok" format="1">
  <advance width="409"/>
  <outline>
    <contour>
      <point x="127" y="420" type="curve"/>
      <point x="131" y="455" type="line"/>
      <point x="267" y="425"/>
      <point x="402" y="369"/>
      <point x="402" y="272" type="curve"/>
      <point x="402" y="175"/>
      <point x="155" y="95"/>
      <point x="49" y="63" type="curve"/>
      <point x="29" y="90" type="line"/>
      <point x="191" y="139"/>
      <point x="323" y="194"/>
      <point x="323" y="279" type="curve"/>
      <point x="323" y="353"/>
      <point x="224" y="411"/>
    </contour>
    <contour>
      <point x="46" y="-6" type="curve"/>
      <point x="46" y="28" type="line"/>
      <point x="67" y="40"/>
      <point x="79" y="50"/>
      <point x="79" y="69" type="curve"/>
      <point x="79" y="77"/>
      <point x="82" y="232"/>
      <point x="83" y="343" type="curve"/>
      <point x="38" y="342" type="line"/>
      <point x="39" y="373" type="line"/>
      <point x="60" y="401"/>
      <point x="75" y="434"/>
      <point x="85" y="485" type="curve"/>
      <point x="104" y="580"/>
      <point x="147" y="710"/>
      <point x="285" y="710" type="curve"/>
      <point x="343" y="710"/>
      <point x="387" y="701"/>
      <point x="439" y="686" type="curve"/>
      <point x="439" y="682" type="line"/>
      <point x="387" y="608" type="line"/>
      <point x="382" y="608" type="line"/>
      <point x="352" y="638"/>
      <point x="305" y="665"/>
      <point x="271" y="665" type="curve"/>
      <point x="200" y="665"/>
      <point x="167" y="598"/>
      <point x="168" y="499" type="curve"/>
      <point x="169" y="390"/>
      <point x="169" y="95"/>
      <point x="173" y="75" type="curve"/>
      <point x="179" y="47"/>
      <point x="181" y="37"/>
      <point x="242" y="28" type="curve"/>
      <point x="245" y="-7" type="line"/>
      <point x="167" y="0"/>
      <point x="116" y="0"/>
    </contour>
    <contour>
      <point x="136" y="355" type="move"/>
    </contour>
  </outline>
</glyph>
<glyph name="n_urrot" format="1">
  <advance width="466"/>
  <outline>
    <contour>
      <point x="139" y="683" type="curve"/>
      <point x="140" y="714" type="line"/>
      <point x="270" y="719" type="line"/>
      <point x="274" y="714" type="line"/>
      <point x="260" y="588" type="line" smooth="yes"/>
      <point x="254" y="538"/>
      <point x="261" y="538"/>
      <point x="304" y="534" type="curve"/>
      <point x="303" y="509" type="line"/>
      <point x="191" y="489" type="line"/>
      <point x="186" y="495" type="line"/>
      <point x="184" y="636" type="line" smooth="yes"/>
      <point x="183" y="683"/>
      <point x="175" y="683"/>
    </contour>
    <contour>
      <point x="113" y="337" type="curve"/>
      <point x="122" y="302" type="line"/>
      <point x="160" y="331"/>
      <point x="200" y="342"/>
      <point x="242" y="342" type="curve"/>
      <point x="321" y="342"/>
      <point x="327" y="288"/>
      <point x="326" y="179" type="curve"/>
      <point x="325" y="88"/>
      <point x="321" y="43"/>
      <point x="302" y="27" type="curve"/>
      <point x="301" y="-3" type="line"/>
      <point x="325" y="-1"/>
      <point x="417" y="-2"/>
      <point x="440" y="-3" type="curve"/>
      <point x="441" y="27" type="line"/>
      <point x="420" y="43"/>
      <point x="418" y="56"/>
      <point x="415" y="96" type="curve"/>
      <point x="412" y="142"/>
      <point x="417" y="240"/>
      <point x="412" y="335" type="curve"/>
      <point x="410" y="374"/>
      <point x="356" y="413"/>
      <point x="320" y="413" type="curve"/>
      <point x="290" y="413"/>
      <point x="181" y="378"/>
    </contour>
    <contour>
      <point x="133" y="96" type="curve"/>
      <point x="127" y="144"/>
      <point x="122" y="311"/>
      <point x="132" y="400" type="curve"/>
      <point x="122" y="409" type="line"/>
      <point x="82" y="392"/>
      <point x="50" y="376"/>
      <point x="28" y="363" type="curve"/>
      <point x="32" y="275"/>
      <point x="33" y="67"/>
      <point x="25" y="-6" type="curve"/>
      <point x="160" y="-3" type="line"/>
      <point x="160" y="27" type="line"/>
      <point x="134" y="47"/>
      <point x="136" y="63"/>
    </contour>
  </outline>
</glyph>
<glyph name="p_ra" format="1">
  <advance width="506"/>
  <outline>
    <contour>
      <point x="58" y="540" type="curve"/>
      <point x="38" y="559" type="line"/>
      <point x="48" y="574"/>
      <point x="86" y="621"/>
      <point x="106" y="647" type="curve"/>
      <point x="115" y="644" type="line"/>
      <point x="137" y="619"/>
      <point x="180" y="575"/>
      <point x="199" y="575" type="curve"/>
      <point x="214" y="575"/>
      <point x="238" y="607"/>
      <point x="267" y="648" type="curve"/>
      <point x="277" y="646" type="line"/>
      <point x="293" y="616"/>
      <point x="326" y="576"/>
      <point x="354" y="576" type="curve"/>
      <point x="375" y="576"/>
      <point x="404" y="595"/>
      <point x="438" y="653" type="curve"/>
      <point x="455" y="634" type="line"/>
      <point x="429" y="576"/>
      <point x="366" y="522"/>
      <point x="329" y="502" type="curve"/>
      <point x="314" y="509"/>
      <point x="276" y="544"/>
      <point x="244" y="563" type="curve"/>
      <point x="217" y="554"/>
      <point x="191" y="539"/>
      <point x="156" y="504" type="curve"/>
      <point x="126" y="524"/>
      <point x="105" y="558"/>
      <point x="82" y="562" type="curve"/>
      <point x="70" y="559"/>
      <point x="62" y="547"/>
    </contour>
    <component base="p"/>
  </outline>
</glyph>
<glyph name="p_urrot" format="1">
  <advance width="508"/>
  <outline>
    <contour>
      <point x="159" y="623" type="curve"/>
      <point x="160" y="654" type="line"/>
      <point x="290" y="659" type="line"/>
      <point x="294" y="654" type="line"/>
      <point x="277" y="566" type="line" smooth="yes"/>
      <point x="270" y="528"/>
      <point x="271" y="528"/>
      <point x="324" y="514" type="curve"/>
      <point x="313" y="489" type="line"/>
      <point x="201" y="499" type="line"/>
      <point x="196" y="505" type="line"/>
      <point x="204" y="576" type="line" smooth="yes"/>
      <point x="209" y="623"/>
      <point x="195" y="623"/>
    </contour>
    <component base="p"/>
  </outline>
</glyph>
<glyph name="q_etfin_ra" format="1">
  <advance width="747"/>
  <outline>
    <contour>
      <point x="290" y="563" type="curve"/>
      <point x="274" y="585" type="line"/>
      <point x="286" y="598"/>
      <point x="333" y="637"/>
      <point x="358" y="659" type="curve"/>
      <point x="366" y="655" type="line"/>
      <point x="383" y="625"/>
      <point x="417" y="574"/>
      <point x="437" y="570" type="curve"/>
      <point x="451" y="567"/>
      <point x="481" y="594"/>
      <point x="517" y="629" type="curve"/>
      <point x="528" y="625" type="line"/>
      <point x="538" y="592"/>
      <point x="562" y="545"/>
      <point x="590" y="540" type="curve"/>
      <point x="611" y="536"/>
      <point x="644" y="550"/>
      <point x="688" y="601" type="curve"/>
      <point x="701" y="579" type="line"/>
      <point x="665" y="526"/>
      <point x="591" y="485"/>
      <point x="551" y="473" type="curve"/>
      <point x="534" y="485"/>
      <point x="491" y="545"/>
      <point x="460" y="564" type="curve"/>
      <point x="484" y="551" type="line"/>
      <point x="454" y="546"/>
      <point x="423" y="537"/>
      <point x="380" y="507" type="curve"/>
      <point x="354" y="533"/>
      <point x="340" y="571"/>
      <point x="317" y="580" type="curve"/>
      <point x="305" y="579"/>
      <point x="295" y="569"/>
    </contour>
    <component base="q_etfin"/>
  </outline>
</glyph>
<glyph name="q_urrot" format="1">
  <advance width="534"/>
  <outline>
    <contour>
      <point x="238" y="613" type="curve"/>
      <point x="239" y="644" type="line"/>
      <point x="369" y="649" type="line"/>
      <point x="373" y="644" type="line"/>
      <point x="356" y="556" type="line" smooth="yes"/>
      <point x="349" y="518"/>
      <point x="350" y="518"/>
      <point x="403" y="504" type="curve"/>
      <point x="392" y="479" type="line"/>
      <point x="280" y="489" type="line"/>
      <point x="275" y="495" type="line"/>
      <point x="283" y="566" type="line" smooth="yes"/>
      <point x="288" y="613"/>
      <point x="274" y="613"/>
    </contour>
    <component base="q"/>
  </outline>
</glyph>
<glyph name="r.ss01" format="1">
  <advance width="394"/>
  <outline>
    <contour>
      <point x="48" y="311" type="curve"/>
      <point x="37" y="341" type="line"/>
      <point x="70" y="376"/>
      <point x="149" y="411"/>
      <point x="169" y="411" type="curve"/>
      <point x="200" y="411"/>
      <point x="296" y="387"/>
      <point x="296" y="306" type="curve"/>
      <point x="296" y="230"/>
      <point x="167" y="112"/>
      <point x="103" y="54" type="curve"/>
      <point x="196" y="58"/>
      <point x="290" y="61"/>
      <point x="389" y="67" type="curve"/>
      <point x="391" y="55" type="line"/>
      <point x="366" y="-3" type="line"/>
      <point x="216" y="-1"/>
      <point x="119" y="-1"/>
      <point x="9" y="-2" type="curve"/>
      <point x="5" y="14" type="line"/>
      <point x="92" y="75"/>
      <point x="200" y="188"/>
      <point x="200" y="254" type="curve"/>
      <point x="200" y="334"/>
      <point x="124" y="373"/>
    </contour>
  </outline>
</glyph>
<glyph name="r_macr" format="1">
  <advance width="386"/>
  <outline>
    <contour>
      <point x="95" y="486" type="curve"/>
      <point x="71" y="497" type="line"/>
      <point x="154" y="582" type="line"/>
      <point x="232" y="582"/>
      <point x="268" y="565"/>
      <point x="342" y="611" type="curve"/>
      <point x="370" y="604" type="line"/>
      <point x="240" y="494" type="line"/>
      <point x="179" y="499"/>
      <point x="144" y="507"/>
    </contour>
    <component base="r" xOffset="-13"/>
    <contour>
      <point x="188" y="397.549" type="move" name="_top"/>
    </contour>
    <contour>
      <point x="179" y="640.893" type="move" name="top"/>
    </contour>
  </outline>
</glyph>
<glyph name="z.ss01" format="1">
  <advance width="406"/>
  <outline>
    <contour>
      <point x="57" y="276" type="curve"/>
      <point x="20" y="276" type="line"/>
      <point x="35" y="400" type="line"/>
      <point x="152" y="401"/>
      <point x="303" y="400"/>
      <point x="385" y="404" type="curve"/>
      <point x="386" y="377" type="line"/>
      <point x="151" y="39" type="line"/>
      <point x="260" y="51" type="line" smooth="yes"/>
      <point x="299" y="55"/>
      <point x="320" y="85"/>
      <point x="335" y="121" type="curve"/>
      <point x="370" y="121" type="line"/>
      <point x="368" y="1" type="line"/>
      <point x="255" y="3"/>
      <point x="142" y="2"/>
      <point x="29" y="0" type="curve"/>
      <point x="30" y="27" type="line"/>
      <point x="252" y="353" type="line"/>
      <point x="125" y="337" type="line" smooth="yes"/>
      <point x="82" y="332"/>
      <point x="74" y="307"/>
    </contour>
  </outline>
</glyph>
